<svg xmlns="http://www.w3.org/2000/svg" xmlns:xlink="http://www.w3.org/1999/xlink" width="1587" zoomAndPan="magnify" viewBox="0 0 1190.25 1683.749945" height="2245" preserveAspectRatio="xMidYMid meet" version="1.0"><defs><filter x="0%" y="0%" width="100%" height="100%" id="ee65c01a2c"><feColorMatrix values="0 0 0 0 1 0 0 0 0 1 0 0 0 0 1 0 0 0 1 0" color-interpolation-filters="sRGB"/></filter><clipPath id="0f8b6d3770"><path d="M 670 613 L 689 613 L 689 626.863281 L 670 626.863281 Z M 670 613 " clip-rule="nonzero"/></clipPath><clipPath id="66248904e3"><path d="M 670 615 L 689 615 L 689 626.863281 L 670 626.863281 Z M 670 615 " clip-rule="nonzero"/></clipPath><mask id="cdc7843902"><g filter="url(#ee65c01a2c)"><rect x="-119.025" width="1428.3" fill="#000000" y="-168.374994" height="2020.499934" fill-opacity="0.4275"/></g></mask><clipPath id="67b04b2720"><rect x="0" width="14" y="0" height="15"/></clipPath><mask id="e2b6f82c3d"><g filter="url(#ee65c01a2c)"><rect x="-119.025" width="1428.3" fill="#000000" y="-168.374994" height="2020.499934" fill-opacity="0.4275"/></g></mask><clipPath id="9916d87aa1"><rect x="0" width="8" y="0" height="8"/></clipPath><clipPath id="0174315bc6"><path d="M 633.644531 563 L 650 563 L 650 571 L 633.644531 571 Z M 633.644531 563 " clip-rule="nonzero"/></clipPath><clipPath id="cc65d6f3aa"><path d="M 710 560 L 726.625 560 L 726.625 569 L 710 569 Z M 710 560 " clip-rule="nonzero"/></clipPath><clipPath id="699a3e2416"><path d="M 676 518.886719 L 680 518.886719 L 680 550 L 676 550 Z M 676 518.886719 " clip-rule="nonzero"/></clipPath><clipPath id="99ddb11e86"><path d="M 441.992188 712.109375 L 848 712.109375 L 848 1067 L 441.992188 1067 Z M 441.992188 712.109375 " clip-rule="nonzero"/></clipPath><clipPath id="27d217d996"><path d="M 512 1249 L 564 1249 L 564 1299.988281 L 512 1299.988281 Z M 512 1249 " clip-rule="nonzero"/></clipPath><clipPath id="7466d7b39f"><path d="M 786 1249 L 838 1249 L 838 1299.988281 L 786 1299.988281 Z M 786 1249 " clip-rule="nonzero"/></clipPath><clipPath id="6cbb2e1d7e"><path d="M 837 1117 L 918.140625 1117 L 918.140625 1199 L 837 1199 Z M 837 1117 " clip-rule="nonzero"/></clipPath><clipPath id="b2f76f91f0"><path d="M 535 626.542969 L 641 626.542969 L 641 706 L 535 706 Z M 535 626.542969 " clip-rule="nonzero"/></clipPath><clipPath id="7aa1062f16"><path d="M 313.449219 824 L 627 824 L 627 973 L 313.449219 973 Z M 313.449219 824 " clip-rule="nonzero"/></clipPath><clipPath id="c93a03c8a5"><path d="M 328 1264 L 401 1264 L 401 1299.902344 L 328 1299.902344 Z M 328 1264 " clip-rule="nonzero"/></clipPath><clipPath id="f8733d8c2a"><path d="M 437 1264 L 510 1264 L 510 1299.902344 L 437 1299.902344 Z M 437 1264 " clip-rule="nonzero"/></clipPath></defs><path fill="#ff9f42" d="M 703.59375 578.457031 C 703.703125 580.507812 703.550781 582.539062 703.144531 584.554688 C 702.738281 586.566406 702.085938 588.496094 701.1875 590.34375 C 700.289062 592.191406 699.175781 593.898438 697.847656 595.460938 C 696.519531 597.027344 695.015625 598.398438 693.335938 599.582031 C 692.175781 600.398438 691.230469 601.417969 690.503906 602.636719 C 689.777344 603.855469 689.332031 605.171875 689.164062 606.582031 L 688.234375 614.511719 L 688.191406 614.859375 L 670.730469 615.539062 L 668.546875 605.066406 C 668.292969 603.875 667.839844 602.765625 667.183594 601.738281 C 666.527344 600.710938 665.710938 599.832031 664.738281 599.101562 C 663.300781 598.015625 661.996094 596.78125 660.832031 595.40625 C 659.667969 594.027344 658.671875 592.539062 657.839844 590.9375 C 657.007812 589.339844 656.363281 587.667969 655.902344 585.921875 C 655.445312 584.175781 655.183594 582.402344 655.121094 580.601562 C 654.636719 567.300781 664.929688 556.113281 678.171875 555.464844 C 678.242188 555.464844 678.3125 555.453125 678.382812 555.453125 C 691.597656 554.921875 702.90625 565.210938 703.59375 578.457031 Z M 703.59375 578.457031 " fill-opacity="1" fill-rule="nonzero"/><path fill="#ff9f42" d="M 703.59375 578.457031 C 703.703125 580.507812 703.550781 582.539062 703.144531 584.554688 C 702.738281 586.566406 702.085938 588.496094 701.1875 590.34375 C 700.289062 592.191406 699.175781 593.898438 697.847656 595.460938 C 696.519531 597.027344 695.015625 598.398438 693.335938 599.582031 C 692.175781 600.398438 691.230469 601.417969 690.503906 602.636719 C 689.777344 603.855469 689.332031 605.171875 689.164062 606.582031 L 688.234375 614.511719 L 674.753906 615.039062 L 672.570312 604.570312 C 672.316406 603.378906 671.859375 602.269531 671.207031 601.242188 C 670.550781 600.210938 669.734375 599.332031 668.757812 598.601562 C 667.320312 597.515625 666.019531 596.285156 664.855469 594.90625 C 663.691406 593.53125 662.691406 592.042969 661.859375 590.441406 C 661.027344 588.839844 660.382812 587.167969 659.925781 585.425781 C 659.464844 583.679688 659.203125 581.90625 659.140625 580.101562 C 658.707031 568.109375 667.035156 557.832031 678.382812 555.453125 C 691.597656 554.921875 702.90625 565.210938 703.59375 578.457031 Z M 703.59375 578.457031 " fill-opacity="1" fill-rule="nonzero"/><path fill="#223040" d="M 688.234375 614.511719 L 688.191406 614.859375 L 670.730469 615.539062 L 668.546875 605.066406 C 668.292969 603.875 667.839844 602.765625 667.183594 601.738281 C 666.527344 600.710938 665.710938 599.832031 664.738281 599.101562 C 663.300781 598.015625 661.996094 596.78125 660.832031 595.40625 C 659.667969 594.027344 658.671875 592.539062 657.839844 590.9375 C 657.007812 589.339844 656.363281 587.667969 655.902344 585.921875 C 655.445312 584.175781 655.183594 582.402344 655.121094 580.601562 C 654.636719 567.300781 664.929688 556.113281 678.171875 555.464844 C 678.242188 555.464844 678.3125 555.453125 678.382812 555.453125 C 667.035156 557.832031 658.707031 568.109375 659.140625 580.101562 C 659.207031 581.90625 659.46875 583.679688 659.925781 585.421875 C 660.386719 587.167969 661.03125 588.839844 661.863281 590.441406 C 662.695312 592.039062 663.691406 593.53125 664.855469 594.90625 C 666.019531 596.285156 667.320312 597.515625 668.757812 598.601562 C 669.734375 599.332031 670.550781 600.214844 671.207031 601.242188 C 671.859375 602.269531 672.316406 603.378906 672.570312 604.570312 L 674.753906 615.039062 Z M 688.234375 614.511719 " fill-opacity="0.1176" fill-rule="nonzero"/><g clip-path="url(#0f8b6d3770)"><path fill="#25197c" d="M 688.464844 613.378906 L 688.609375 617.300781 C 688.628906 617.898438 688.59375 618.492188 688.496094 619.082031 C 688.402344 619.671875 688.25 620.246094 688.042969 620.808594 C 687.832031 621.367188 687.570312 621.902344 687.257812 622.410156 C 686.945312 622.921875 686.585938 623.394531 686.179688 623.832031 C 685.769531 624.269531 685.324219 624.664062 684.839844 625.015625 C 684.355469 625.363281 683.84375 625.664062 683.300781 625.914062 C 682.757812 626.160156 682.195312 626.355469 681.613281 626.492188 C 681.03125 626.628906 680.441406 626.710938 679.84375 626.730469 C 679.25 626.753906 678.65625 626.714844 678.066406 626.621094 C 677.476562 626.523438 676.902344 626.375 676.339844 626.164062 C 675.78125 625.957031 675.246094 625.695312 674.738281 625.378906 C 674.230469 625.066406 673.757812 624.707031 673.320312 624.296875 C 672.882812 623.890625 672.488281 623.445312 672.140625 622.960938 C 671.789062 622.476562 671.492188 621.960938 671.242188 621.417969 C 670.992188 620.875 670.800781 620.308594 670.664062 619.726562 C 670.523438 619.144531 670.445312 618.554688 670.425781 617.957031 L 670.28125 614.039062 Z M 688.464844 613.378906 " fill-opacity="1" fill-rule="nonzero"/></g><path fill="#25197c" d="M 688.464844 613.378906 L 688.546875 615.597656 C 688.5625 616.191406 688.519531 616.78125 688.421875 617.367188 C 688.324219 617.953125 688.167969 618.527344 687.957031 619.082031 C 687.746094 619.636719 687.480469 620.167969 687.167969 620.671875 C 686.851562 621.175781 686.492188 621.644531 686.085938 622.078125 C 685.679688 622.511719 685.234375 622.902344 684.75 623.25 C 684.269531 623.59375 683.757812 623.890625 683.214844 624.136719 C 682.675781 624.382812 682.117188 624.574219 681.539062 624.710938 C 680.960938 624.847656 680.375 624.925781 679.78125 624.949219 C 679.1875 624.96875 678.597656 624.933594 678.011719 624.839844 C 677.425781 624.746094 676.851562 624.59375 676.296875 624.390625 C 675.738281 624.183594 675.207031 623.925781 674.699219 623.613281 C 674.191406 623.304688 673.722656 622.945312 673.285156 622.542969 C 672.847656 622.140625 672.453125 621.699219 672.105469 621.21875 C 671.753906 620.738281 671.453125 620.230469 671.203125 619.691406 C 670.953125 619.152344 670.753906 618.59375 670.613281 618.015625 C 670.472656 617.4375 670.386719 616.851562 670.363281 616.257812 L 670.28125 614.039062 Z M 688.464844 613.378906 " fill-opacity="1" fill-rule="nonzero"/><g clip-path="url(#66248904e3)"><path fill="#1b1b1c" d="M 688.546875 615.597656 L 688.609375 617.300781 C 688.628906 617.898438 688.59375 618.492188 688.496094 619.082031 C 688.402344 619.671875 688.25 620.246094 688.042969 620.808594 C 687.832031 621.367188 687.570312 621.902344 687.257812 622.410156 C 686.945312 622.921875 686.585938 623.394531 686.179688 623.832031 C 685.769531 624.269531 685.324219 624.664062 684.839844 625.015625 C 684.355469 625.363281 683.84375 625.664062 683.300781 625.914062 C 682.757812 626.160156 682.195312 626.355469 681.613281 626.492188 C 681.03125 626.628906 680.441406 626.710938 679.84375 626.730469 C 679.25 626.753906 678.65625 626.714844 678.066406 626.621094 C 677.476562 626.523438 676.902344 626.375 676.339844 626.164062 C 675.78125 625.957031 675.246094 625.695312 674.738281 625.378906 C 674.230469 625.066406 673.757812 624.707031 673.320312 624.296875 C 672.882812 623.890625 672.488281 623.445312 672.140625 622.960938 C 671.789062 622.476562 671.492188 621.960938 671.242188 621.417969 C 670.992188 620.875 670.800781 620.308594 670.664062 619.726562 C 670.523438 619.144531 670.445312 618.554688 670.425781 617.957031 L 670.363281 616.257812 C 670.386719 616.851562 670.472656 617.4375 670.613281 618.015625 C 670.753906 618.59375 670.953125 619.152344 671.203125 619.691406 C 671.453125 620.230469 671.753906 620.738281 672.105469 621.21875 C 672.453125 621.699219 672.847656 622.140625 673.285156 622.542969 C 673.722656 622.945312 674.191406 623.304688 674.699219 623.613281 C 675.207031 623.925781 675.738281 624.183594 676.296875 624.390625 C 676.851562 624.59375 677.425781 624.746094 678.011719 624.839844 C 678.597656 624.933594 679.1875 624.96875 679.78125 624.949219 C 680.375 624.925781 680.960938 624.847656 681.539062 624.710938 C 682.117188 624.574219 682.675781 624.382812 683.214844 624.136719 C 683.757812 623.890625 684.269531 623.59375 684.75 623.25 C 685.234375 622.902344 685.679688 622.511719 686.085938 622.078125 C 686.492188 621.644531 686.851562 621.175781 687.167969 620.671875 C 687.480469 620.167969 687.746094 619.636719 687.957031 619.082031 C 688.167969 618.527344 688.324219 617.953125 688.421875 617.367188 C 688.519531 616.78125 688.5625 616.191406 688.546875 615.597656 Z M 688.546875 615.597656 " fill-opacity="0.2" fill-rule="nonzero"/></g><g mask="url(#cdc7843902)"><g transform="matrix(1, 0, 0, 1, 684, 559)"><g clip-path="url(#67b04b2720)"><path fill="#ffffff" d="M 10.234375 5.300781 C 10.421875 5.574219 10.589844 5.859375 10.734375 6.15625 C 10.875 6.453125 10.992188 6.757812 11.082031 7.066406 C 11.171875 7.378906 11.234375 7.691406 11.265625 8.003906 C 11.300781 8.316406 11.304688 8.625 11.28125 8.929688 C 11.257812 9.230469 11.207031 9.523438 11.125 9.804688 C 11.042969 10.085938 10.9375 10.351562 10.804688 10.601562 C 10.667969 10.851562 10.511719 11.078125 10.328125 11.285156 C 10.144531 11.492188 9.941406 11.675781 9.71875 11.832031 C 9.496094 11.988281 9.253906 12.117188 9 12.21875 C 8.742188 12.320312 8.472656 12.390625 8.195312 12.429688 C 7.914062 12.472656 7.628906 12.480469 7.335938 12.460938 C 7.046875 12.441406 6.753906 12.390625 6.460938 12.308594 C 6.167969 12.226562 5.878906 12.117188 5.597656 11.976562 C 5.316406 11.839844 5.042969 11.675781 4.78125 11.484375 C 4.523438 11.292969 4.277344 11.078125 4.046875 10.84375 C 3.816406 10.605469 3.605469 10.351562 3.414062 10.082031 C 3.226562 9.808594 3.058594 9.527344 2.917969 9.226562 C 2.773438 8.929688 2.65625 8.628906 2.566406 8.316406 C 2.476562 8.003906 2.414062 7.691406 2.382812 7.378906 C 2.347656 7.066406 2.34375 6.757812 2.367188 6.453125 C 2.390625 6.152344 2.441406 5.859375 2.523438 5.578125 C 2.605469 5.296875 2.710938 5.03125 2.84375 4.78125 C 2.980469 4.535156 3.136719 4.304688 3.320312 4.097656 C 3.503906 3.890625 3.707031 3.710938 3.929688 3.554688 C 4.152344 3.394531 4.394531 3.265625 4.648438 3.167969 C 4.90625 3.066406 5.175781 2.996094 5.453125 2.953125 C 5.734375 2.914062 6.019531 2.902344 6.3125 2.921875 C 6.601562 2.945312 6.894531 2.996094 7.1875 3.074219 C 7.480469 3.15625 7.769531 3.265625 8.050781 3.40625 C 8.332031 3.542969 8.605469 3.710938 8.867188 3.898438 C 9.128906 4.089844 9.371094 4.304688 9.601562 4.539062 C 9.832031 4.777344 10.042969 5.03125 10.234375 5.300781 Z M 10.234375 5.300781 " fill-opacity="1" fill-rule="nonzero"/></g></g></g><g mask="url(#e2b6f82c3d)"><g transform="matrix(1, 0, 0, 1, 693, 571)"><g clip-path="url(#9916d87aa1)"><path fill="#ffffff" d="M 6.144531 2.671875 C 6.347656 2.996094 6.488281 3.34375 6.574219 3.707031 C 6.65625 4.074219 6.675781 4.429688 6.628906 4.777344 C 6.582031 5.125 6.472656 5.4375 6.300781 5.71875 C 6.128906 5.996094 5.910156 6.21875 5.640625 6.382812 C 5.375 6.550781 5.078125 6.648438 4.753906 6.679688 C 4.425781 6.707031 4.097656 6.664062 3.765625 6.554688 C 3.433594 6.441406 3.125 6.265625 2.835938 6.027344 C 2.546875 5.789062 2.300781 5.507812 2.097656 5.183594 C 1.894531 4.859375 1.753906 4.511719 1.671875 4.148438 C 1.585938 3.785156 1.566406 3.425781 1.613281 3.078125 C 1.660156 2.730469 1.769531 2.417969 1.941406 2.140625 C 2.113281 1.859375 2.332031 1.636719 2.601562 1.472656 C 2.867188 1.304688 3.164062 1.207031 3.488281 1.179688 C 3.816406 1.148438 4.144531 1.191406 4.476562 1.304688 C 4.808594 1.414062 5.117188 1.589844 5.40625 1.828125 C 5.695312 2.066406 5.941406 2.347656 6.144531 2.671875 Z M 6.144531 2.671875 " fill-opacity="1" fill-rule="nonzero"/></g></g></g><path fill="#ffffff" d="M 667.066406 576.570312 L 668.964844 576.507812 C 669.105469 576.503906 669.175781 576.570312 669.183594 576.710938 L 669.441406 584.496094 C 669.449219 584.640625 669.378906 584.710938 669.238281 584.714844 L 667.34375 584.78125 C 667.203125 584.785156 667.128906 584.714844 667.125 584.574219 L 666.863281 576.785156 C 666.859375 576.648438 666.925781 576.574219 667.066406 576.570312 Z M 667.066406 576.570312 " fill-opacity="0.7176" fill-rule="nonzero"/><path fill="#ffffff" d="M 677.457031 575.9375 L 677.738281 584.21875 C 677.742188 584.359375 677.671875 584.429688 677.53125 584.433594 L 675.835938 584.492188 C 675.695312 584.496094 675.621094 584.429688 675.617188 584.289062 L 675.601562 583.867188 C 675.203125 584.375 674.59375 584.640625 673.765625 584.667969 C 673.203125 584.695312 672.671875 584.578125 672.167969 584.320312 C 671.671875 584.0625 671.28125 583.6875 671 583.203125 C 670.703125 582.667969 670.546875 582.097656 670.527344 581.484375 C 670.503906 580.875 670.625 580.292969 670.882812 579.738281 C 671.132812 579.238281 671.5 578.84375 671.976562 578.554688 C 672.460938 578.265625 672.980469 578.117188 673.542969 578.101562 C 674.121094 578.085938 674.601562 578.195312 674.988281 578.4375 C 675.058594 578.480469 675.132812 578.484375 675.203125 578.441406 C 675.277344 578.398438 675.3125 578.335938 675.308594 578.25 L 675.234375 576.015625 C 675.226562 575.875 675.296875 575.800781 675.4375 575.796875 L 677.242188 575.738281 C 677.378906 575.734375 677.453125 575.800781 677.457031 575.9375 Z M 675.109375 582.449219 C 675.347656 582.171875 675.460938 581.792969 675.445312 581.316406 C 675.429688 580.839844 675.292969 580.476562 675.039062 580.226562 C 674.773438 579.957031 674.449219 579.835938 674.070312 579.859375 C 673.691406 579.863281 673.375 580.003906 673.125 580.292969 C 672.882812 580.566406 672.773438 580.9375 672.785156 581.40625 C 672.800781 581.875 672.941406 582.246094 673.199219 582.515625 C 673.46875 582.789062 673.792969 582.910156 674.171875 582.886719 C 674.550781 582.882812 674.863281 582.738281 675.109375 582.449219 Z M 675.109375 582.449219 " fill-opacity="0.6392" fill-rule="nonzero"/><path fill="#ffffff" d="M 685.34375 581.554688 L 681.234375 581.691406 C 681.15625 581.695312 681.097656 581.730469 681.058594 581.796875 C 681.019531 581.863281 681.019531 581.929688 681.054688 582 C 681.164062 582.183594 681.308594 582.332031 681.492188 582.441406 C 681.8125 582.621094 682.152344 582.699219 682.515625 582.671875 C 682.789062 582.671875 683.050781 582.617188 683.300781 582.519531 C 683.492188 582.433594 683.664062 582.324219 683.824219 582.191406 C 683.921875 582.117188 684.011719 582.121094 684.101562 582.207031 L 685.023438 583.109375 C 685.121094 583.207031 685.125 583.304688 685.03125 583.40625 C 684.441406 584.015625 683.597656 584.339844 682.5 584.375 C 681.816406 584.414062 681.160156 584.292969 680.535156 584.019531 C 679.984375 583.769531 679.539062 583.394531 679.199219 582.894531 C 678.859375 582.394531 678.675781 581.84375 678.648438 581.238281 C 678.621094 580.632812 678.753906 580.066406 679.042969 579.539062 C 679.335938 579.007812 679.746094 578.59375 680.269531 578.296875 C 680.8125 578.003906 681.394531 577.84375 682.011719 577.816406 C 682.628906 577.789062 683.21875 577.902344 683.785156 578.148438 C 684.3125 578.390625 684.730469 578.757812 685.046875 579.246094 C 685.382812 579.78125 685.550781 580.363281 685.558594 580.996094 C 685.558594 581.007812 685.554688 581.125 685.546875 581.347656 C 685.542969 581.480469 685.476562 581.550781 685.34375 581.554688 Z M 681.261719 579.71875 C 681.101562 579.867188 680.984375 580.042969 680.914062 580.25 C 680.894531 580.316406 680.902344 580.382812 680.949219 580.441406 C 680.992188 580.5 681.050781 580.527344 681.125 580.523438 L 683.167969 580.453125 C 683.242188 580.453125 683.296875 580.421875 683.339844 580.359375 C 683.378906 580.296875 683.386719 580.234375 683.359375 580.167969 C 683.277344 579.964844 683.152344 579.796875 682.980469 579.660156 C 682.722656 579.472656 682.429688 579.386719 682.109375 579.398438 C 681.789062 579.410156 681.507812 579.515625 681.257812 579.71875 Z M 681.261719 579.71875 " fill-opacity="0.4667" fill-rule="nonzero"/><path fill="#ffffff" d="M 691.441406 578.21875 C 692.011719 578.683594 692.316406 579.410156 692.347656 580.402344 L 692.464844 583.722656 C 692.46875 583.863281 692.402344 583.933594 692.261719 583.941406 L 690.609375 583.996094 C 690.46875 584 690.394531 583.929688 690.390625 583.789062 C 690.386719 583.699219 690.34375 583.636719 690.261719 583.605469 C 690.175781 583.570312 690.101562 583.582031 690.039062 583.644531 C 689.691406 583.972656 689.191406 584.148438 688.527344 584.171875 C 688.082031 584.195312 687.652344 584.125 687.238281 583.953125 C 686.894531 583.8125 686.613281 583.589844 686.402344 583.28125 C 686.199219 582.980469 686.097656 582.648438 686.089844 582.289062 C 686.046875 581.695312 686.261719 581.222656 686.734375 580.863281 C 687.183594 580.515625 687.890625 580.328125 688.851562 580.292969 L 689.871094 580.261719 C 689.9375 580.257812 689.992188 580.230469 690.03125 580.175781 C 690.074219 580.121094 690.085938 580.0625 690.066406 579.996094 C 689.921875 579.5 689.476562 579.261719 688.734375 579.289062 C 688.417969 579.300781 688.109375 579.359375 687.8125 579.464844 C 687.601562 579.539062 687.402344 579.636719 687.214844 579.757812 C 687.164062 579.792969 687.105469 579.804688 687.046875 579.789062 C 686.988281 579.773438 686.941406 579.738281 686.914062 579.683594 L 686.320312 578.578125 C 686.257812 578.464844 686.28125 578.375 686.386719 578.300781 C 686.734375 578.09375 687.105469 577.933594 687.496094 577.828125 C 687.988281 577.679688 688.492188 577.601562 689.003906 577.582031 C 690.058594 577.546875 690.871094 577.757812 691.441406 578.21875 Z M 689.769531 582.53125 C 689.957031 582.402344 690.085938 582.226562 690.15625 582.007812 C 690.167969 581.980469 690.171875 581.953125 690.171875 581.925781 L 690.160156 581.625 C 690.15625 581.484375 690.082031 581.417969 689.941406 581.421875 L 689.191406 581.449219 C 688.542969 581.46875 688.226562 581.695312 688.242188 582.125 C 688.242188 582.320312 688.320312 582.472656 688.480469 582.585938 C 688.667969 582.710938 688.871094 582.761719 689.097656 582.742188 C 689.339844 582.738281 689.566406 582.667969 689.769531 582.53125 Z M 689.769531 582.53125 " fill-opacity="0.298" fill-rule="nonzero"/><g clip-path="url(#0174315bc6)"><path fill="#ff9f42" d="M 648.53125 570.511719 C 648.386719 570.511719 648.242188 570.488281 648.109375 570.4375 L 634.601562 565.511719 C 634.445312 565.457031 634.300781 565.375 634.175781 565.265625 C 634.050781 565.15625 633.953125 565.023438 633.882812 564.875 C 633.808594 564.722656 633.769531 564.566406 633.761719 564.398438 C 633.753906 564.234375 633.777344 564.070312 633.835938 563.914062 C 633.890625 563.757812 633.976562 563.617188 634.089844 563.496094 C 634.203125 563.375 634.335938 563.277344 634.488281 563.210938 C 634.640625 563.140625 634.796875 563.105469 634.964844 563.101562 C 635.132812 563.097656 635.292969 563.125 635.449219 563.1875 L 648.953125 568.109375 C 649.234375 568.214844 649.453125 568.394531 649.601562 568.65625 C 649.753906 568.914062 649.800781 569.195312 649.75 569.488281 C 649.699219 569.785156 649.558594 570.03125 649.328125 570.222656 C 649.097656 570.417969 648.832031 570.511719 648.53125 570.511719 Z M 648.53125 570.511719 " fill-opacity="0.4588" fill-rule="nonzero"/></g><path fill="#ff9f42" d="M 654.0625 558.910156 C 653.796875 558.910156 653.554688 558.832031 653.335938 558.671875 L 639.371094 548.472656 C 639.238281 548.375 639.132812 548.257812 639.046875 548.117188 C 638.960938 547.976562 638.90625 547.824219 638.878906 547.664062 C 638.855469 547.5 638.859375 547.339844 638.898438 547.179688 C 638.9375 547.019531 639.003906 546.875 639.101562 546.742188 C 639.199219 546.609375 639.316406 546.5 639.457031 546.414062 C 639.597656 546.328125 639.75 546.273438 639.910156 546.25 C 640.074219 546.222656 640.234375 546.230469 640.394531 546.269531 C 640.550781 546.308594 640.699219 546.375 640.832031 546.472656 L 654.792969 556.679688 C 655.007812 556.835938 655.15625 557.042969 655.238281 557.296875 C 655.320312 557.550781 655.320312 557.808594 655.238281 558.0625 C 655.15625 558.316406 655.003906 558.523438 654.789062 558.679688 C 654.570312 558.835938 654.328125 558.914062 654.0625 558.914062 Z M 654.0625 558.910156 " fill-opacity="0.4588" fill-rule="nonzero"/><path fill="#ff9f42" d="M 663.796875 550.75 C 663.324219 550.75 662.96875 550.550781 662.730469 550.144531 L 651.90625 531.863281 C 651.816406 531.722656 651.757812 531.570312 651.734375 531.40625 C 651.707031 531.238281 651.710938 531.078125 651.75 530.914062 C 651.792969 530.753906 651.859375 530.605469 651.960938 530.46875 C 652.058594 530.335938 652.179688 530.226562 652.324219 530.140625 C 652.464844 530.058594 652.621094 530.003906 652.785156 529.980469 C 652.949219 529.957031 653.113281 529.96875 653.273438 530.011719 C 653.433594 530.054688 653.582031 530.128906 653.710938 530.230469 C 653.84375 530.332031 653.949219 530.457031 654.03125 530.601562 L 664.851562 548.882812 C 665.097656 549.292969 665.101562 549.707031 664.863281 550.125 C 664.628906 550.542969 664.269531 550.75 663.789062 550.75 Z M 663.796875 550.75 " fill-opacity="0.6863" fill-rule="nonzero"/><g clip-path="url(#cc65d6f3aa)"><path fill="#ff9f42" d="M 711.828125 568.128906 C 711.535156 568.128906 711.269531 568.035156 711.042969 567.847656 C 710.816406 567.65625 710.671875 567.417969 710.617188 567.128906 C 710.558594 566.835938 710.601562 566.5625 710.742188 566.300781 C 710.886719 566.039062 711.09375 565.855469 711.367188 565.746094 L 724.707031 560.367188 C 724.859375 560.304688 725.015625 560.273438 725.179688 560.277344 C 725.34375 560.277344 725.5 560.3125 725.652344 560.375 C 725.804688 560.4375 725.9375 560.53125 726.050781 560.648438 C 726.164062 560.765625 726.253906 560.898438 726.316406 561.050781 C 726.375 561.203125 726.40625 561.363281 726.402344 561.527344 C 726.402344 561.691406 726.371094 561.847656 726.304688 562 C 726.242188 562.148438 726.148438 562.28125 726.035156 562.398438 C 725.917969 562.511719 725.78125 562.601562 725.628906 562.660156 L 712.289062 568.039062 C 712.140625 568.101562 711.988281 568.128906 711.828125 568.128906 Z M 711.828125 568.128906 " fill-opacity="0.4588" fill-rule="nonzero"/></g><path fill="#ff9f42" d="M 705.910156 556.722656 C 705.644531 556.722656 705.40625 556.648438 705.191406 556.492188 C 704.976562 556.339844 704.824219 556.140625 704.738281 555.890625 C 704.652344 555.640625 704.648438 555.386719 704.722656 555.132812 C 704.796875 554.878906 704.9375 554.671875 705.144531 554.507812 L 718.757812 543.847656 C 718.886719 543.75 719.03125 543.675781 719.1875 543.632812 C 719.347656 543.585938 719.507812 543.574219 719.671875 543.59375 C 719.832031 543.617188 719.984375 543.664062 720.128906 543.746094 C 720.269531 543.828125 720.394531 543.933594 720.496094 544.0625 C 720.59375 544.191406 720.667969 544.335938 720.710938 544.492188 C 720.753906 544.652344 720.769531 544.8125 720.746094 544.972656 C 720.726562 545.136719 720.679688 545.289062 720.597656 545.433594 C 720.515625 545.574219 720.410156 545.699219 720.28125 545.800781 L 706.671875 556.460938 C 706.445312 556.632812 706.191406 556.722656 705.910156 556.722656 Z M 705.910156 556.722656 " fill-opacity="0.4588" fill-rule="nonzero"/><path fill="#ff9f42" d="M 695.914062 548.894531 C 695.808594 548.894531 695.703125 548.878906 695.597656 548.851562 C 695.496094 548.824219 695.394531 548.785156 695.304688 548.730469 C 695.210938 548.675781 695.125 548.613281 695.046875 548.539062 C 694.972656 548.460938 694.90625 548.378906 694.851562 548.285156 C 694.796875 548.191406 694.753906 548.09375 694.726562 547.992188 C 694.695312 547.886719 694.683594 547.78125 694.679688 547.675781 C 694.679688 547.566406 694.691406 547.460938 694.714844 547.359375 C 694.742188 547.253906 694.78125 547.152344 694.832031 547.058594 L 705.035156 528.425781 C 705.109375 528.277344 705.210938 528.148438 705.339844 528.039062 C 705.464844 527.929688 705.609375 527.851562 705.769531 527.800781 C 705.929688 527.75 706.09375 527.734375 706.261719 527.75 C 706.429688 527.765625 706.585938 527.816406 706.734375 527.894531 C 706.878906 527.976562 707.003906 528.082031 707.109375 528.214844 C 707.214844 528.347656 707.289062 528.496094 707.332031 528.65625 C 707.375 528.820312 707.386719 528.984375 707.363281 529.148438 C 707.339844 529.316406 707.285156 529.472656 707.199219 529.617188 L 697 548.25 C 696.765625 548.679688 696.402344 548.894531 695.914062 548.894531 Z M 695.914062 548.894531 " fill-opacity="0.6863" fill-rule="nonzero"/><g clip-path="url(#699a3e2416)"><path fill="#ff9f42" d="M 678.648438 549.230469 C 678.492188 549.230469 678.335938 549.199219 678.1875 549.140625 C 678.039062 549.078125 677.910156 548.992188 677.792969 548.882812 C 677.679688 548.773438 677.589844 548.644531 677.523438 548.496094 C 677.457031 548.351562 677.421875 548.199219 677.417969 548.039062 L 676.394531 520.167969 C 676.390625 520.007812 676.421875 519.851562 676.480469 519.699219 C 676.539062 519.550781 676.625 519.417969 676.734375 519.300781 C 676.847656 519.183594 676.976562 519.089844 677.121094 519.023438 C 677.269531 518.957031 677.425781 518.921875 677.585938 518.914062 C 677.746094 518.910156 677.902344 518.933594 678.054688 518.992188 C 678.207031 519.046875 678.34375 519.128906 678.460938 519.238281 C 678.582031 519.34375 678.675781 519.472656 678.746094 519.617188 C 678.816406 519.765625 678.855469 519.917969 678.863281 520.078125 L 679.886719 547.949219 C 679.890625 548.113281 679.867188 548.269531 679.808594 548.425781 C 679.753906 548.578125 679.667969 548.714844 679.558594 548.835938 C 679.445312 548.957031 679.316406 549.050781 679.164062 549.117188 C 679.015625 549.1875 678.859375 549.222656 678.695312 549.230469 Z M 678.648438 549.230469 " fill-opacity="1" fill-rule="nonzero"/></g><path fill="#416389" d="M 472.382812 1046.574219 L 472.382812 914.867188 C 472.382812 898.082031 485.992188 884.472656 502.777344 884.472656 L 634.476562 884.472656 C 645.664062 884.472656 654.738281 893.542969 654.738281 904.734375 C 654.738281 915.925781 645.664062 924.996094 634.476562 924.996094 L 512.90625 924.996094 L 512.90625 1046.574219 C 512.90625 1057.765625 503.835938 1066.839844 492.644531 1066.839844 C 481.457031 1066.839844 472.382812 1057.765625 472.382812 1046.574219 " fill-opacity="1" fill-rule="nonzero"/><g clip-path="url(#99ddb11e86)"><path fill="#4e8bd0" d="M 573.691406 742.628906 L 573.691406 1006.050781 L 472.382812 1006.050781 C 455.597656 1006.050781 441.992188 1019.660156 441.992188 1036.445312 C 441.992188 1053.230469 455.597656 1066.839844 472.382812 1066.839844 L 816.832031 1066.839844 C 833.617188 1066.839844 847.222656 1053.230469 847.222656 1036.445312 L 847.222656 742.628906 C 847.222656 725.84375 833.617188 712.234375 816.832031 712.234375 L 604.082031 712.234375 C 587.300781 712.234375 573.691406 725.84375 573.691406 742.628906 " fill-opacity="1" fill-rule="nonzero"/></g><path fill="#4480ca" d="M 786.4375 1016.179688 L 573.691406 1016.179688 L 573.691406 995.917969 L 786.4375 995.917969 L 786.4375 1016.179688 " fill-opacity="1" fill-rule="nonzero"/><path fill="#416389" d="M 654.738281 1046.574219 L 654.738281 914.867188 C 654.738281 898.082031 668.347656 884.472656 685.128906 884.472656 L 826.960938 884.472656 C 838.152344 884.472656 847.222656 893.542969 847.222656 904.734375 C 847.222656 915.925781 838.152344 924.996094 826.960938 924.996094 L 695.261719 924.996094 L 695.261719 1046.574219 C 695.261719 1057.765625 686.1875 1066.839844 675 1066.839844 C 663.808594 1066.839844 654.738281 1057.765625 654.738281 1046.574219 " fill-opacity="1" fill-rule="nonzero"/><path fill="#5c9ad9" d="M 624.34375 762.894531 L 604.082031 762.894531 L 604.082031 742.628906 L 624.34375 742.628906 L 624.34375 762.894531 " fill-opacity="1" fill-rule="nonzero"/><path fill="#5c9ad9" d="M 624.34375 843.945312 L 604.082031 843.945312 L 604.082031 783.15625 L 624.34375 783.15625 L 624.34375 843.945312 " fill-opacity="1" fill-rule="nonzero"/><path fill="#416389" d="M 715.523438 1137.757812 L 634.476562 1137.757812 L 634.476562 1066.839844 L 715.523438 1066.839844 L 715.523438 1137.757812 " fill-opacity="1" fill-rule="nonzero"/><path fill="#416389" d="M 695.261719 1228.941406 L 695.261719 1137.757812 L 654.738281 1137.757812 L 654.738281 1228.941406 L 543.300781 1259.335938 L 543.300781 1279.601562 L 806.699219 1279.601562 L 806.699219 1259.335938 L 695.261719 1228.941406 " fill-opacity="1" fill-rule="nonzero"/><g clip-path="url(#27d217d996)"><path fill="#344e6c" d="M 563.5625 1274.535156 C 563.5625 1288.523438 552.222656 1299.863281 538.234375 1299.863281 C 524.246094 1299.863281 512.90625 1288.523438 512.90625 1274.535156 C 512.90625 1260.542969 524.246094 1249.207031 538.234375 1249.207031 C 552.222656 1249.207031 563.5625 1260.542969 563.5625 1274.535156 " fill-opacity="1" fill-rule="nonzero"/></g><g clip-path="url(#7466d7b39f)"><path fill="#344e6c" d="M 837.09375 1274.535156 C 837.09375 1288.523438 825.753906 1299.863281 811.765625 1299.863281 C 797.777344 1299.863281 786.4375 1288.523438 786.4375 1274.535156 C 786.4375 1260.542969 797.777344 1249.207031 811.765625 1249.207031 C 825.753906 1249.207031 837.09375 1260.542969 837.09375 1274.535156 " fill-opacity="1" fill-rule="nonzero"/></g><path fill="#3c5c82" d="M 850.191406 1144.921875 L 822.769531 1117.496094 L 715.523438 1117.496094 L 715.523438 1097.234375 L 826.960938 1097.234375 C 829.648438 1097.234375 832.226562 1098.300781 834.125 1100.199219 L 864.519531 1130.59375 L 850.191406 1144.921875 " fill-opacity="1" fill-rule="nonzero"/><g clip-path="url(#6cbb2e1d7e)"><path fill="#416389" d="M 909.203125 1156.132812 L 863.683594 1119.71875 C 859.648438 1116.492188 853.84375 1116.8125 850.191406 1120.464844 L 840.0625 1130.59375 C 836.410156 1134.246094 836.089844 1140.054688 839.3125 1144.085938 L 875.726562 1189.609375 C 880.273438 1195.289062 887.050781 1198.546875 894.320312 1198.546875 C 907.457031 1198.546875 918.140625 1187.863281 918.140625 1174.734375 C 918.140625 1167.457031 914.886719 1160.679688 909.203125 1156.132812 " fill-opacity="1" fill-rule="nonzero"/></g><path fill="#3c5c82" d="M 695.261719 1158.023438 L 654.738281 1158.023438 L 654.738281 1137.757812 L 695.261719 1137.757812 L 695.261719 1158.023438 " fill-opacity="1" fill-rule="nonzero"/><path fill="#e89364" d="M 552.242188 643.035156 L 552.242188 685.691406 C 552.242188 697.632812 561.914062 707.871094 574.433594 707.871094 L 574.433594 736.875 L 622.804688 736.875 L 622.804688 649.859375 Z M 552.242188 643.035156 " fill-opacity="1" fill-rule="nonzero"/><g clip-path="url(#b2f76f91f0)"><path fill="#2062a9" d="M 610.285156 656.6875 L 610.285156 705.027344 C 627.355469 705.027344 640.445312 691.378906 640.445312 674.882812 L 640.445312 658.960938 C 640.445312 640.761719 625.648438 626.542969 608.007812 626.542969 L 535.738281 626.542969 C 535.738281 643.605469 549.394531 656.6875 565.898438 656.6875 Z M 610.285156 656.6875 " fill-opacity="1" fill-rule="nonzero"/></g><path fill="#e4e4da" d="M 706.453125 830.144531 L 706.453125 972.890625 C 706.453125 977.441406 702.46875 981.421875 697.917969 981.421875 L 460.625 981.421875 C 460.054688 981.421875 460.054688 981.421875 459.488281 981.421875 C 455.503906 980.851562 452.65625 977.441406 452.65625 973.460938 L 452.65625 863.128906 C 452.65625 821.613281 472.574219 784.644531 503.304688 760.761719 C 524.925781 743.699219 552.242188 734.03125 581.832031 734.03125 L 609.714844 734.03125 C 663.207031 733.460938 706.453125 777.253906 706.453125 830.144531 Z M 706.453125 830.144531 " fill-opacity="1" fill-rule="nonzero"/><g clip-path="url(#7aa1062f16)"><path fill="#19325c" d="M 313.808594 824.457031 L 358.195312 972.890625 L 626.21875 972.890625 L 626.21875 955.261719 L 547.6875 955.261719 L 505.011719 827.867188 Z M 313.808594 824.457031 " fill-opacity="1" fill-rule="nonzero"/></g><path fill="#e4e4da" d="M 441.277344 908.058594 C 441.277344 908.953125 441.1875 909.839844 441.015625 910.71875 C 440.839844 911.597656 440.582031 912.453125 440.238281 913.28125 C 439.894531 914.109375 439.472656 914.894531 438.976562 915.640625 C 438.476562 916.386719 437.910156 917.074219 437.277344 917.707031 C 436.640625 918.34375 435.953125 918.910156 435.207031 919.40625 C 434.460938 919.902344 433.675781 920.324219 432.847656 920.667969 C 432.015625 921.011719 431.164062 921.269531 430.285156 921.445312 C 429.40625 921.621094 428.515625 921.707031 427.621094 921.707031 C 426.722656 921.707031 425.835938 921.621094 424.957031 921.445312 C 424.074219 921.269531 423.222656 921.011719 422.394531 920.667969 C 421.566406 920.324219 420.777344 919.902344 420.03125 919.40625 C 419.285156 918.910156 418.597656 918.34375 417.960938 917.707031 C 417.328125 917.074219 416.761719 916.386719 416.265625 915.640625 C 415.765625 914.894531 415.34375 914.109375 415.003906 913.28125 C 414.660156 912.453125 414.398438 911.597656 414.226562 910.71875 C 414.050781 909.839844 413.960938 908.953125 413.960938 908.058594 C 413.960938 907.160156 414.050781 906.273438 414.226562 905.394531 C 414.398438 904.515625 414.660156 903.664062 415.003906 902.835938 C 415.34375 902.007812 415.765625 901.21875 416.265625 900.472656 C 416.761719 899.730469 417.328125 899.039062 417.960938 898.40625 C 418.597656 897.773438 419.285156 897.207031 420.03125 896.707031 C 420.777344 896.210938 421.566406 895.789062 422.394531 895.449219 C 423.222656 895.105469 424.074219 894.84375 424.957031 894.671875 C 425.835938 894.496094 426.722656 894.410156 427.621094 894.410156 C 428.515625 894.410156 429.40625 894.496094 430.285156 894.671875 C 431.164062 894.84375 432.015625 895.105469 432.847656 895.449219 C 433.675781 895.789062 434.460938 896.210938 435.207031 896.707031 C 435.953125 897.207031 436.640625 897.773438 437.277344 898.40625 C 437.910156 899.039062 438.476562 899.730469 438.976562 900.472656 C 439.472656 901.21875 439.894531 902.007812 440.238281 902.835938 C 440.582031 903.664062 440.839844 904.515625 441.015625 905.394531 C 441.1875 906.273438 441.277344 907.160156 441.277344 908.058594 Z M 441.277344 908.058594 " fill-opacity="1" fill-rule="nonzero"/><path fill="#e89364" d="M 731.492188 958.671875 L 594.921875 958.671875 C 584.675781 958.671875 576.710938 950.140625 577.847656 939.90625 C 578.417969 935.925781 580.125 931.945312 582.96875 929.101562 C 585.816406 926.257812 589.796875 924.550781 593.78125 923.980469 L 699.625 914.3125 L 656.378906 850.617188 L 652.964844 845.5 C 641.011719 827.867188 637.597656 805.121094 644.996094 784.644531 L 647.839844 776.683594 C 654.101562 758.484375 678.570312 755.074219 689.953125 770.996094 L 717.265625 809.101562 C 724.09375 816.496094 732.628906 832.417969 739.457031 851.1875 C 755.390625 894.976562 764.496094 956.398438 731.492188 958.671875 Z M 731.492188 958.671875 " fill-opacity="1" fill-rule="nonzero"/><path fill="#e4e4da" d="M 738.890625 850.617188 L 655.808594 850.617188 L 652.394531 845.5 C 640.445312 827.867188 637.03125 805.121094 644.425781 784.644531 C 644.425781 784.644531 647.273438 776.683594 647.273438 776.683594 C 650.6875 767.015625 641.011719 748.816406 650.6875 748.816406 C 683.691406 748.816406 730.355469 817.0625 736.613281 844.363281 C 737.75 846.636719 738.320312 848.910156 738.890625 850.617188 Z M 738.890625 850.617188 " fill-opacity="1" fill-rule="nonzero"/><path fill="#ba3b2f" d="M 361.039062 972.890625 C 339.984375 972.890625 322.914062 989.953125 322.914062 1010.996094 L 358.195312 1237.34375 L 401.441406 1237.34375 L 405.996094 1043.410156 L 530.046875 1043.410156 C 567.605469 1043.410156 597.765625 1013.269531 597.765625 975.734375 L 597.765625 972.890625 Z M 361.039062 972.890625 " fill-opacity="1" fill-rule="nonzero"/><path fill="#e89364" d="M 362.179688 1264.640625 L 400.304688 1264.640625 L 400.875 1237.34375 L 358.195312 1237.34375 Z M 362.179688 1264.640625 " fill-opacity="1" fill-rule="nonzero"/><g clip-path="url(#c93a03c8a5)"><path fill="#2062a9" d="M 362.746094 1268.054688 L 332.019531 1286.253906 C 329.742188 1287.390625 328.605469 1290.234375 328.605469 1292.507812 C 328.605469 1294.785156 329.175781 1296.488281 330.882812 1297.628906 C 332.019531 1298.765625 334.296875 1299.902344 336.003906 1299.902344 L 396.320312 1299.902344 L 399.734375 1299.332031 L 400.304688 1264.640625 L 362.179688 1264.640625 Z M 362.746094 1268.054688 " fill-opacity="1" fill-rule="nonzero"/></g><path fill="#ba3b2f" d="M 470.867188 972.890625 C 449.8125 972.890625 432.742188 989.953125 432.742188 1010.996094 L 437.863281 1043.410156 L 468.023438 1237.34375 L 511.269531 1237.34375 L 515.820312 1043.410156 L 639.875 1043.410156 C 676.292969 1043.410156 706.453125 1013.269531 706.453125 975.734375 L 706.453125 972.890625 Z M 470.867188 972.890625 " fill-opacity="1" fill-rule="nonzero"/><path fill="#e89364" d="M 471.4375 1264.640625 L 509.5625 1264.640625 L 510.132812 1237.34375 L 467.453125 1237.34375 Z M 471.4375 1264.640625 " fill-opacity="1" fill-rule="nonzero"/><g clip-path="url(#f8733d8c2a)"><path fill="#2062a9" d="M 472.003906 1268.054688 L 440.707031 1286.820312 C 439 1287.957031 437.863281 1289.664062 437.863281 1291.941406 L 437.863281 1294.214844 C 437.863281 1297.628906 440.707031 1299.902344 443.554688 1299.902344 L 505.578125 1299.902344 L 508.992188 1299.332031 L 509.5625 1264.640625 L 471.4375 1264.640625 Z M 472.003906 1268.054688 " fill-opacity="1" fill-rule="nonzero"/></g></svg>