<svg xmlns="http://www.w3.org/2000/svg" xmlns:xlink="http://www.w3.org/1999/xlink" width="800" zoomAndPan="magnify" viewBox="0 0 600 449.999984" height="600" preserveAspectRatio="xMidYMid meet" version="1.0"><defs><g/><clipPath id="c814dbbb68"><path d="M 96 36 L 484.714844 36 L 484.714844 416 L 96 416 Z M 96 36 " clip-rule="nonzero"/></clipPath></defs><path fill="#64c9da" d="M 171.183594 75.410156 C 176.796875 71.613281 182.984375 67.144531 188.949219 63.230469 C 194.902344 59.3125 200.617188 55.960938 204.839844 54.058594 C 201.273438 54.703125 195.285156 57.761719 189.367188 61.398438 C 183.425781 65.011719 177.582031 69.214844 173.554688 71.382812 C 175.554688 70.765625 173.9375 72.070312 172.351562 73.394531 C 170.757812 74.714844 169.207031 76.078125 171.183594 75.410156 " fill-opacity="1" fill-rule="evenodd"/><path fill="#64c9da" d="M 104.570312 207.347656 C 102.605469 226.074219 104.113281 242.871094 106.769531 254.230469 C 106.925781 259.863281 108.347656 268.519531 110.714844 276.566406 C 113.042969 284.632812 116.277344 292.03125 118.550781 295.667969 L 119.066406 294.828125 C 114.042969 283.578125 110.273438 271.40625 107.90625 258.871094 C 105.550781 246.339844 104.582031 233.457031 104.953125 220.75 C 105.308594 208.035156 106.972656 195.503906 109.648438 183.546875 C 112.320312 171.589844 115.984375 160.214844 120.191406 149.632812 C 116.074219 158.898438 112.582031 168.628906 109.957031 178.402344 C 107.308594 188.175781 105.53125 197.988281 104.570312 207.347656 " fill-opacity="1" fill-rule="evenodd"/><path fill="#64c9da" d="M 188.253906 66.503906 C 190.980469 64.007812 198.132812 60.042969 197.703125 59.035156 C 191.949219 62.363281 188.679688 65.09375 188.253906 66.503906 " fill-opacity="1" fill-rule="evenodd"/><path fill="#64c9da" d="M 481.816406 251.144531 C 480.554688 257.789062 479.394531 265.324219 477.953125 272.304688 C 476.542969 279.285156 474.886719 285.703125 473.257812 290.039062 C 475.316406 287.050781 477.382812 280.660156 478.96875 273.894531 C 480.585938 267.128906 481.710938 260.035156 483.007812 255.652344 C 482.03125 257.503906 482.253906 255.441406 482.429688 253.386719 C 482.597656 251.328125 482.738281 249.273438 481.816406 251.144531 " fill-opacity="1" fill-rule="evenodd"/><path fill="#64c9da" d="M 448.378906 131.699219 C 454.96875 141.980469 460.4375 152.5625 464.980469 162.964844 C 461.316406 153.542969 456.871094 144.253906 451.804688 135.523438 C 446.746094 126.796875 441.054688 118.640625 435.117188 111.390625 C 423.253906 96.839844 410.320312 86.097656 400.425781 79.984375 C 396.332031 76.132812 389.222656 71.046875 381.867188 67.0625 C 374.535156 63.023438 367.03125 60.105469 362.863281 59.148438 L 363.097656 60.101562 C 374.574219 64.476562 385.824219 70.375 396.34375 77.519531 C 406.859375 84.664062 416.636719 93.054688 425.363281 102.242188 C 434.105469 111.429688 441.796875 121.414062 448.378906 131.699219 " fill-opacity="1" fill-rule="evenodd"/><path fill="#64c9da" d="M 474.765625 281.464844 C 476.453125 275.042969 476.835938 270.800781 476.121094 269.507812 C 475.980469 273.199219 473.746094 281.066406 474.765625 281.464844 " fill-opacity="1" fill-rule="evenodd"/><path fill="#64c9da" d="M 462.585938 166.710938 C 462.820312 168.449219 463.988281 173.449219 465.113281 177.875 C 466.257812 182.296875 467.429688 186.15625 468.484375 185.453125 C 466.191406 178.03125 464.714844 172.664062 462.585938 166.710938 " fill-opacity="1" fill-rule="evenodd"/><path fill="#64c9da" d="M 472.46875 251.617188 C 473.203125 245.03125 474.949219 237.410156 473.199219 234.035156 C 473.339844 239.40625 472.082031 246.046875 472.46875 251.617188 " fill-opacity="1" fill-rule="evenodd"/><path fill="#64c9da" d="M 466.40625 281.609375 C 467.199219 279.570312 468.691406 275.3125 469.644531 271.277344 C 470.609375 267.25 471.0625 263.480469 470.332031 262.589844 C 470.25 264.757812 469.59375 268.152344 468.765625 271.671875 C 467.949219 275.199219 466.945312 278.84375 466.40625 281.609375 " fill-opacity="1" fill-rule="evenodd"/><path fill="#64c9da" d="M 468.878906 206.09375 C 469.332031 208.9375 469.726562 211.800781 470.042969 214.675781 C 470.878906 214.292969 471.082031 211.421875 470.785156 209 C 470.492188 206.582031 469.71875 204.652344 468.878906 206.09375 " fill-opacity="1" fill-rule="evenodd"/><path fill="#64c9da" d="M 469.976562 236.261719 C 469.769531 239.988281 469.882812 241.898438 470.046875 243.59375 C 470.210938 245.289062 470.417969 246.765625 470.210938 249.605469 C 469.597656 249.789062 468.953125 252.839844 468.40625 256.082031 C 467.867188 259.335938 467.4375 262.800781 467.679688 263.882812 C 468.847656 260.539062 470.097656 254.40625 470.769531 248.351562 C 471.488281 242.292969 471.636719 236.34375 471.582031 233.421875 C 471.421875 229.386719 470.542969 236.164062 469.976562 236.261719 " fill-opacity="1" fill-rule="evenodd"/><path fill="#64c9da" d="M 458.96875 179.128906 C 460.542969 181.421875 459.1875 177.488281 460.445312 177.199219 C 458.234375 171.847656 458.09375 167.914062 456.585938 168.007812 C 458.09375 171.21875 458.246094 172.773438 458.265625 174.109375 C 458.289062 175.460938 458.175781 176.605469 458.96875 179.128906 " fill-opacity="1" fill-rule="evenodd"/><g clip-path="url(#c814dbbb68)"><path fill="#64c9da" d="M 331.9375 52.644531 C 335.027344 53.191406 335.683594 53.957031 336.597656 54.675781 C 337.507812 55.414062 338.671875 56.097656 342.746094 56.808594 C 342.445312 57.292969 338.726562 56.09375 336.25 55.621094 C 336.941406 54.484375 331.277344 53.746094 331.9375 52.644531 Z M 393.328125 84.429688 C 397.695312 86.695312 390.644531 80.496094 394.722656 82.453125 C 396.78125 84.417969 397.410156 85.960938 397.53125 87.300781 C 402.675781 90.980469 401.5 89.589844 405.703125 93.425781 C 404.847656 93.625 401.992188 91.433594 399.519531 89.707031 C 397.0625 87.972656 395.027344 86.664062 396.101562 88.273438 C 394.832031 87.9375 393.550781 86.605469 389.113281 84.09375 C 389.84375 83.945312 389.914062 83.589844 389.535156 83.089844 C 389.523438 82.964844 389.46875 82.804688 389.339844 82.570312 C 388.417969 81.898438 387.824219 81.53125 387.425781 81.34375 C 386.765625 80.902344 386.003906 80.433594 385.183594 79.949219 C 381.8125 77.9375 377.496094 75.8125 375.769531 74.179688 C 381.164062 76.277344 387.65625 80.046875 393.328125 84.429688 Z M 415.753906 102.820312 C 417.640625 105.207031 418.8125 107.527344 417.929688 108.015625 C 415.074219 105.335938 414.292969 103.84375 413.589844 102.375 C 412.894531 100.910156 412.28125 99.476562 409.605469 97.148438 C 411.269531 97.992188 413.867188 100.421875 415.753906 102.820312 Z M 409.207031 100.515625 C 409.089844 100.496094 408.980469 100.429688 408.867188 100.394531 C 406.890625 98.515625 404.320312 95.929688 401.703125 93.617188 C 403.328125 93.304688 406.929688 98.082031 409.207031 100.515625 Z M 407.75 99.851562 C 407.105469 99.425781 406.472656 98.84375 405.84375 98.171875 C 406.300781 98.425781 406.980469 98.867188 408.070312 99.644531 C 407.863281 99.65625 407.769531 99.738281 407.75 99.851562 Z M 401.203125 97.066406 C 395.5 93.445312 389.058594 88.710938 382.214844 84.339844 C 375.394531 79.953125 368.183594 75.945312 361.609375 73.414062 C 365 73.632812 372.625 77.425781 379.828125 81.890625 C 387.089844 86.285156 393.886719 91.3125 397.363281 92.140625 C 400.578125 95.042969 394.683594 92.308594 401.203125 97.066406 Z M 439.863281 146.996094 C 440.996094 149.148438 438.078125 147.777344 435.617188 143.191406 C 435.863281 142.238281 437.109375 143.949219 437.292969 142.820312 C 438.835938 145.09375 439.160156 147.15625 439.863281 146.996094 Z M 407.757812 116.675781 C 408.246094 116.378906 410.644531 119.023438 412.257812 120.632812 L 411.894531 122.003906 C 408.378906 119.023438 409.453125 118.589844 407.757812 116.675781 Z M 439.78125 157.121094 C 442.53125 162.429688 444.191406 166.703125 443.714844 167.414062 C 442.804688 165.605469 441.824219 163.734375 440.777344 161.84375 C 438.21875 157.140625 435.277344 152.417969 432.585938 148.332031 C 432.644531 148.191406 432.582031 147.824219 432.308594 147.003906 C 430.828125 144.144531 430.648438 144.800781 430.214844 144.816406 C 429.652344 143.984375 429.105469 143.191406 428.589844 142.464844 C 428.492188 142.332031 428.414062 142.214844 428.320312 142.082031 C 427.699219 139.671875 428.9375 139.386719 429.621094 140.003906 C 432.941406 145.15625 436.976562 151.636719 439.78125 157.121094 Z M 448.671875 164.847656 C 448.105469 164.628906 447.789062 165.542969 447.160156 165.421875 C 446.519531 165.3125 445.636719 164.144531 443.6875 159.917969 C 443.945312 159.558594 444.75 161.375 445.34375 162.429688 C 446.242188 161.777344 442.769531 156.464844 444.171875 156.410156 C 446.25 161.15625 447.074219 161.324219 448.671875 164.847656 Z M 133.972656 317.492188 C 133.855469 316.320312 133.511719 315.011719 131.132812 311.617188 C 131.6875 311.488281 133.472656 314.976562 134.890625 317.070312 C 133.601562 317.378906 137.082031 321.925781 135.835938 322.242188 C 134.035156 319.652344 134.113281 318.648438 133.972656 317.492188 Z M 450.546875 173.582031 C 449.964844 172.03125 449.402344 170.617188 448.898438 169.4375 C 449.367188 169.84375 449.824219 170.230469 450.164062 169.964844 C 450.542969 171.472656 450.78125 172.847656 450.546875 173.582031 Z M 412.644531 95.5 C 415.886719 98.203125 418.882812 100.992188 420.257812 102.976562 C 420.1875 103.332031 417.847656 101.363281 415.699219 99.417969 C 413.570312 97.453125 411.632812 95.484375 412.644531 95.5 Z M 401.019531 70.304688 C 387.617188 61.097656 373.507812 54.035156 360.070312 49.089844 C 356.800781 48.015625 359.367188 50.234375 355.300781 48.757812 C 354.707031 47.410156 357.910156 48.742188 354.664062 46.859375 C 316.273438 33.714844 272.746094 33.269531 233.023438 46.902344 C 213.199219 53.671875 194.472656 63.867188 177.996094 76.871094 C 161.507812 89.867188 147.257812 105.667969 136.082031 123.339844 C 124.894531 141 116.796875 160.53125 112.269531 180.710938 C 110.746094 187.445312 109.660156 194.242188 108.925781 201.054688 C 108.808594 201.945312 108.671875 202.839844 108.5625 203.730469 C 106.398438 221.78125 107.015625 239.710938 109.914062 256.585938 C 112.804688 273.46875 117.964844 289.285156 124.601562 303.433594 C 131.230469 317.589844 139.308594 330.070312 147.847656 340.726562 C 147.125 341.296875 143.941406 337.535156 140.976562 333.574219 C 137.988281 329.628906 135.230469 325.492188 134.421875 325.910156 C 134.214844 324.425781 130.9375 318.804688 127.75 312.878906 C 124.519531 306.976562 121.382812 300.753906 120.003906 298.890625 C 121.671875 303.136719 119.414062 300.527344 119.015625 297.707031 C 118.917969 300.515625 121.761719 306.792969 125.339844 313.039062 C 128.878906 319.316406 133.148438 325.507812 134.765625 329.21875 C 131.371094 326.988281 133.75 329.503906 136.101562 334.46875 C 132.484375 328.648438 132.191406 329.171875 129.054688 323.660156 C 129.34375 323.160156 130.5625 324.953125 130.574219 323.78125 C 127.457031 320.816406 125.527344 314.296875 122.992188 311.945312 C 123.878906 313.773438 124.769531 316.453125 123.449219 314.417969 C 123.53125 313.316406 121.671875 310.65625 120.847656 309.679688 C 121.230469 309.378906 122.84375 311.488281 121.511719 308.34375 C 119.105469 304.03125 121.363281 309.117188 118.375 304.84375 C 117.296875 300.71875 117.050781 301.214844 119.082031 303.527344 C 116.566406 298.3125 116.292969 298.035156 115.996094 297.917969 C 115.734375 297.785156 115.453125 297.800781 113.429688 292.882812 C 114.871094 293.132812 113.105469 288.019531 111.042969 282.027344 L 105.625 266.292969 C 106.070312 260.488281 103.847656 254.753906 102.628906 246.035156 C 101.816406 238.371094 101.339844 228.703125 101.882812 217.988281 C 102.390625 207.277344 103.929688 195.527344 106.640625 183.8125 C 109.328125 172.085938 113.195312 160.414062 117.738281 149.714844 C 122.269531 139.007812 127.460938 129.28125 132.304688 121.105469 C 135.308594 118.503906 138.953125 112.65625 142.804688 107.335938 C 146.601562 102 150.566406 97.207031 153.003906 96.355469 C 155.210938 92.472656 156.375 90.214844 158.421875 87.53125 C 160.5 84.867188 163.441406 81.71875 169.761719 76.605469 C 163.121094 80.953125 167.738281 76.324219 163.113281 79.808594 C 160.929688 82.015625 165.886719 78.917969 162.363281 82.707031 C 159.671875 84.1875 156.546875 86.621094 153.746094 89.320312 C 150.929688 92.007812 148.425781 94.953125 146.796875 97.328125 C 146.96875 95.765625 143.140625 99.402344 138.753906 104.929688 C 134.34375 110.4375 129.566406 117.902344 126.835938 123.078125 C 119.511719 134.316406 112.582031 147.753906 107.285156 162.710938 C 101.972656 177.648438 98.332031 194.089844 96.988281 210.839844 C 95.605469 227.589844 96.527344 244.621094 99.492188 260.65625 C 102.425781 276.703125 107.402344 291.726562 113.410156 304.765625 C 114.964844 307.851562 114.714844 304.464844 116.542969 308.390625 C 116.011719 309.769531 114.695312 306.546875 115.65625 310.1875 C 133.519531 346.761719 164.089844 377.960938 201.964844 396.417969 C 220.835938 405.664062 241.367188 411.675781 262.292969 414.09375 C 283.222656 416.523438 304.546875 415.367188 325 410.691406 C 345.457031 406.035156 365.039062 397.84375 382.527344 386.664062 C 400.035156 375.5 415.386719 361.394531 427.875 345.402344 C 440.394531 329.40625 450.019531 311.472656 456.425781 292.785156 C 462.839844 274.09375 466.042969 254.667969 466.175781 235.589844 C 466.246094 222.089844 464.457031 210.136719 461.589844 198.542969 C 458.679688 186.953125 454.695312 175.664062 449.171875 163.507812 C 449.101562 163.585938 449.066406 163.699219 449.027344 163.8125 C 448.609375 162.867188 448.203125 161.933594 447.816406 161.058594 C 445.890625 156.636719 444.085938 151.972656 442.058594 147.765625 C 440.03125 143.570312 437.789062 139.84375 435.171875 137.398438 C 431.023438 129.238281 424.769531 121.347656 418.699219 114.847656 C 412.640625 108.308594 406.8125 103.097656 403.78125 99.121094 C 409.417969 104.171875 412.117188 105.984375 415.070312 108.050781 C 416.613281 110.097656 416.316406 111.140625 418.214844 113.453125 C 424.996094 119.273438 429.585938 126.054688 431.960938 126.179688 C 427.9375 122.035156 423.964844 115.660156 420.199219 110.871094 C 420.539062 110.09375 424.113281 114.570312 424.007812 113.121094 C 421.28125 109.820312 418.011719 106.480469 418.457031 105.148438 C 429.363281 115.417969 439.964844 129.128906 448.238281 144.144531 C 456.597656 159.128906 462.609375 175.300781 466.710938 189.773438 C 465.96875 190.179688 466.523438 194.222656 467.246094 197.605469 C 467.980469 200.976562 468.972656 203.714844 469.675781 201.300781 C 468.640625 192.6875 465.921875 184.445312 464.742188 178.609375 C 463.007812 175.789062 460.722656 169.027344 457.796875 161.445312 C 454.917969 153.84375 451.316406 145.453125 448.226562 139.011719 C 451.289062 142.609375 454.082031 148.886719 456.285156 154.339844 C 458.523438 159.785156 460.253906 164.402344 462.195312 164.675781 C 455.492188 147.191406 446.121094 130.953125 434.859375 116.761719 C 423.613281 102.546875 410.507812 90.378906 396.546875 80.558594 C 382.585938 70.71875 367.777344 63.238281 353.125 57.960938 C 338.464844 52.664062 323.96875 49.574219 310.4375 48.085938 C 310.542969 47.171875 315.433594 47.574219 320.320312 48.277344 C 325.210938 48.945312 330.066406 49.917969 330.34375 49.054688 C 331.53125 49.953125 337.8125 51.601562 344.242188 53.523438 C 350.679688 55.402344 357.28125 57.5625 359.566406 57.902344 C 355.390625 56.089844 358.828125 56.332031 361.097656 58.042969 C 359.1875 55.988281 352.75 53.578125 345.824219 51.710938 C 338.90625 49.78125 331.527344 48.433594 327.773438 46.957031 C 331.738281 46.128906 328.285156 46.039062 323.125 44.195312 C 326.464844 44.9375 328.074219 45.230469 329.628906 45.476562 C 331.179688 45.742188 332.675781 45.972656 335.710938 46.835938 C 335.867188 47.394531 333.746094 46.992188 334.558594 47.828125 C 338.84375 47.71875 344.808594 50.949219 348.257812 50.8125 C 346.339844 50.15625 343.816406 48.890625 346.1875 49.390625 C 346.90625 50.234375 350.09375 50.785156 351.363281 50.894531 C 351.308594 51.378906 348.679688 51.03125 351.835938 52.304688 C 356.570312 53.644531 351.398438 51.65625 356.511719 52.550781 C 360.1875 54.699219 360.007812 54.175781 356.945312 53.980469 C 362.398438 55.878906 362.785156 55.878906 363.078125 55.75 C 363.355469 55.65625 363.546875 55.449219 368.445312 57.484375 C 367.25 58.332031 372.097656 60.683594 377.785156 63.441406 L 392.714844 70.6875 C 396.492188 75.09375 402.117188 77.539062 409.125 82.820312 C 415.125 87.628906 422.289062 94.097656 429.488281 102.003906 C 436.703125 109.898438 443.921875 119.242188 450.316406 129.382812 C 456.71875 139.515625 462.265625 150.445312 466.648438 161.167969 C 471.054688 171.886719 474.296875 182.386719 476.695312 191.542969 C 476.425781 195.503906 478.007812 202.1875 479.085938 208.636719 C 480.195312 215.070312 480.816406 221.238281 479.710938 223.5625 C 480.914062 227.851562 481.707031 230.253906 482.171875 233.59375 C 482.597656 236.929688 482.773438 241.226562 481.957031 249.292969 C 483.546875 241.53125 483.582031 248.054688 484.359375 242.332031 C 484.335938 239.234375 483.03125 244.917969 482.824219 239.769531 C 484.5625 233.863281 484.515625 224.113281 483.390625 218.488281 C 484.386719 219.707031 484.46875 214.445312 483.636719 207.464844 C 482.828125 200.476562 480.894531 191.859375 479.140625 186.292969 C 476.316406 173.226562 471.679688 158.886719 464.808594 144.644531 C 457.96875 130.398438 448.890625 116.285156 437.992188 103.5625 C 427.113281 90.820312 414.4375 79.484375 401.019531 70.304688 " fill-opacity="1" fill-rule="evenodd"/></g><path fill="#64c9da" d="M 473.1875 217.640625 C 473.171875 208.765625 471.585938 197.753906 468.949219 187.15625 C 468.957031 191.238281 469.585938 195.121094 470.304688 199.519531 C 471.027344 203.910156 471.855469 208.816406 472.089844 214.789062 C 473.582031 212.097656 472.15625 218.519531 473.1875 217.640625 " fill-opacity="1" fill-rule="evenodd"/><path fill="#64c9da" d="M 450.269531 154.699219 C 451.523438 157.953125 452.304688 161.148438 451.9375 162.28125 C 449.492188 156.355469 448.472656 156.496094 445.714844 150.734375 C 448.542969 152.152344 447.066406 151.160156 446.214844 146.683594 C 447.316406 148.148438 449.023438 151.441406 450.269531 154.699219 Z M 432.417969 124.804688 C 435.164062 129.027344 431.28125 126.992188 432.34375 129.332031 C 433.273438 131.398438 435.230469 134.660156 437.566406 138.527344 C 439.898438 142.402344 442.589844 146.894531 445.136719 151.328125 C 450.261719 160.175781 454.628906 168.894531 456.671875 170.390625 C 454.5 162.023438 450.710938 152.511719 445.726562 143.378906 C 440.769531 134.234375 434.648438 125.5 428.53125 118.179688 C 429.855469 120.976562 433.667969 125.585938 437.042969 130.328125 C 440.4375 135.050781 443.386719 139.882812 443.640625 142.320312 C 441.324219 138.6875 441.589844 141.980469 439.25 138.417969 C 438.347656 134.832031 437.035156 130.855469 432.417969 124.804688 " fill-opacity="1" fill-rule="evenodd"/><path fill="#64c9da" d="M 464.785156 206.070312 C 465.78125 207 466.605469 211.796875 467.074219 217.203125 C 468.035156 212.835938 466.964844 203.988281 465.226562 195.65625 C 464.410156 196.832031 464.914062 198.992188 465.351562 201.050781 C 465.78125 203.117188 466.136719 205.078125 465.140625 205.734375 C 464.984375 204.800781 464.535156 204.113281 464.785156 206.070312 " fill-opacity="1" fill-rule="evenodd"/><g fill="#ffffff" fill-opacity="1"><g transform="translate(180.313836, 337.204859)"><g><path d="M 128.957031 -104.320312 L 141.4375 -105.917969 C 162.238281 -108.476562 183.355469 -118.078125 193.277344 -134.71875 C 198.71875 -144.316406 201.597656 -153.917969 201.597656 -163.835938 C 201.597656 -197.4375 167.039062 -223.996094 119.039062 -223.996094 L 8.960938 -223.996094 C 5.121094 -223.996094 3.199219 -222.078125 3.199219 -219.515625 C 3.199219 -216.957031 6.078125 -213.757812 8.960938 -213.757812 L 19.519531 -213.757812 C 33.917969 -213.757812 39.039062 -208.316406 39.039062 -194.558594 L 39.039062 -18.558594 C 39.039062 -0.960938 36.480469 2.238281 18.878906 2.238281 L 11.839844 2.238281 C 8.960938 2.238281 7.039062 4.800781 7.039062 7.359375 C 7.039062 10.238281 8.960938 13.121094 11.839844 13.121094 L 93.117188 13.121094 C 96.636719 13.121094 98.558594 10.558594 98.558594 7.679688 C 98.558594 4.800781 96.636719 2.238281 93.757812 2.238281 L 82.238281 2.238281 C 66.878906 2.238281 65.597656 0.960938 65.597656 -15.039062 L 65.597656 -104.320312 L 99.519531 -104.320312 L 176.636719 12.480469 L 230.714844 13.121094 C 234.238281 13.441406 236.15625 11.199219 236.15625 8.320312 C 236.15625 5.441406 233.597656 2.238281 230.714844 2.238281 L 216.316406 2.238281 C 201.917969 2.238281 196.796875 -1.28125 187.515625 -15.679688 Z M 144.316406 -118.078125 C 137.277344 -114.558594 128.636719 -112.957031 118.398438 -112.957031 L 65.597656 -112.957031 L 65.597656 -194.558594 C 65.597656 -207.355469 73.277344 -213.757812 88.636719 -213.757812 L 114.558594 -213.757812 C 132.796875 -213.757812 152.316406 -204.15625 161.277344 -189.117188 C 166.078125 -181.117188 168.636719 -171.835938 168.636719 -161.277344 C 168.636719 -143.039062 158.078125 -124.476562 144.316406 -118.078125 Z M 144.316406 -118.078125 "/></g></g></g></svg>