<svg xmlns="http://www.w3.org/2000/svg" xmlns:xlink="http://www.w3.org/1999/xlink" width="800" zoomAndPan="magnify" viewBox="0 0 600 449.999984" height="600" preserveAspectRatio="xMidYMid meet" version="1.0"><defs><clipPath id="2f2228a419"><path d="M 145 34 L 457.480469 34 L 457.480469 404 L 145 404 Z M 145 34 " clip-rule="nonzero"/></clipPath></defs><g clip-path="url(#2f2228a419)"><path fill="#000000" d="M 301.402344 62.742188 C 358.933594 62.742188 394.183594 105.835938 394.183594 158.792969 C 394.183594 159.457031 412.695312 173.414062 405.824219 206.761719 C 428.992188 221.71875 429.769531 269.242188 429.101562 282.539062 C 428.882812 286.414062 429.101562 300.265625 422.007812 303.808594 C 420.679688 304.472656 419.347656 304.695312 418.019531 304.695312 C 412.585938 304.695312 407.820312 299.597656 405.601562 298.601562 C 405.160156 306.6875 402.386719 315.332031 397.511719 323.527344 C 401.722656 328.734375 405.824219 336.046875 405.824219 344.6875 C 405.824219 365.847656 390.304688 374.710938 360.707031 374.710938 C 336.761719 374.710938 311.042969 361.195312 304.949219 346.351562 L 297.851562 346.351562 C 291.757812 361.195312 266.039062 374.710938 242.09375 374.710938 C 212.496094 374.710938 196.976562 365.847656 196.976562 344.6875 C 196.976562 335.824219 201.300781 328.402344 205.511719 323.195312 C 200.636719 315.109375 197.972656 306.46875 197.640625 298.378906 C 195.203125 299.488281 190.324219 304.695312 184.671875 304.695312 C 183.453125 304.695312 182.121094 304.363281 180.792969 303.699219 C 173.699219 300.265625 173.917969 286.414062 173.699219 282.539062 C 173.03125 269.242188 173.808594 221.71875 196.976562 206.761719 C 190.105469 173.414062 208.617188 159.457031 208.617188 158.792969 C 208.617188 105.835938 243.867188 62.742188 301.402344 62.742188 M 301.402344 34.378906 C 234.667969 34.378906 185.335938 81.683594 180.570312 148.265625 C 171.039062 161.78125 166.492188 178.179688 167.15625 196.125 C 143.878906 225.261719 144.765625 273.230469 145.320312 283.976562 C 145.652344 292.953125 146.429688 318.320312 168.15625 329.179688 C 168.929688 329.511719 169.707031 329.953125 170.484375 330.285156 C 169.261719 335.050781 168.597656 339.8125 168.597656 344.6875 C 168.597656 362.304688 175.804688 403.074219 242.09375 403.074219 C 261.605469 403.074219 284.328125 396.3125 301.402344 384.128906 C 318.472656 396.3125 341.195312 403.074219 360.707031 403.074219 C 426.996094 403.074219 434.203125 362.304688 434.203125 344.6875 C 434.203125 339.8125 433.539062 335.050781 432.316406 330.285156 C 433.09375 329.953125 433.871094 329.511719 434.644531 329.179688 C 456.371094 318.320312 457.148438 292.953125 457.371094 284.53125 C 457.925781 273.34375 458.921875 225.261719 435.644531 196.015625 C 436.308594 178.066406 431.761719 161.671875 422.230469 148.15625 C 417.464844 81.574219 368.132812 34.378906 301.402344 34.378906 Z M 301.402344 34.378906 " fill-opacity="1" fill-rule="nonzero"/></g></svg>