<svg xmlns="http://www.w3.org/2000/svg" xmlns:xlink="http://www.w3.org/1999/xlink" width="800" zoomAndPan="magnify" viewBox="0 0 600 449.999984" height="600" preserveAspectRatio="xMidYMid meet" version="1.0"><defs><clipPath id="d4c6a348c7"><path d="M 516.011719 397.363281 L 555 397.363281 L 555 404.863281 L 516.011719 404.863281 Z M 516.011719 397.363281 " clip-rule="nonzero"/></clipPath><clipPath id="a7c0aa7039"><path d="M 100.039062 45 L 478.789062 45 L 478.789062 366 L 100.039062 366 Z M 100.039062 45 " clip-rule="nonzero"/></clipPath></defs><g clip-path="url(#d4c6a348c7)"><path fill="#ffffff" d="M 541.273438 399.585938 C 541.148438 399.769531 540.8125 400.367188 540.832031 401.265625 C 540.859375 402.5 542.53125 402.953125 543.492188 401.84375 C 544.488281 400.691406 543.953125 399.527344 543.035156 399.464844 C 542.339844 399.417969 541.878906 399.808594 541.683594 400.015625 C 541.683594 400.015625 541.6875 400.015625 541.6875 400.011719 C 541.875 399.566406 541.460938 399.320312 541.273438 399.585938 Z M 542.945312 400.121094 C 543.921875 400.441406 543.296875 402.03125 542.265625 401.878906 C 541.574219 401.777344 541.445312 401.257812 541.492188 400.773438 C 541.683594 400.316406 542.457031 399.960938 542.945312 400.121094 Z M 546.5 398.3125 C 546.28125 398.3125 545.671875 398.21875 545.207031 398.203125 C 545.40625 398.636719 545.804688 399.703125 545.753906 401.277344 C 545.683594 403.5 544.421875 404.707031 542.664062 404.714844 C 541.066406 404.722656 540.171875 403.714844 540.046875 403.335938 C 539.933594 402.984375 540.1875 402.996094 540.296875 403.109375 C 540.515625 403.332031 540.691406 403.523438 541.074219 403.695312 C 542.34375 404.269531 544.632812 403.960938 544.871094 401.789062 C 545.074219 399.917969 544.515625 398.621094 544.292969 398.230469 C 542.808594 398.257812 541.183594 398.644531 540.355469 398.957031 C 539.660156 399.21875 539.574219 398.789062 539.589844 398.601562 C 539.597656 398.476562 539.699219 398.191406 540.035156 398.101562 C 542.835938 397.363281 545.894531 397.828125 546.316406 397.894531 C 546.761719 397.964844 546.71875 398.3125 546.5 398.3125 Z M 548.402344 398.800781 C 548.863281 398.648438 549.65625 398.429688 550.226562 398.328125 C 549.265625 398.980469 547.984375 400.785156 548.960938 402.210938 C 550.082031 403.847656 553.25 403.171875 553.316406 401.0625 C 553.375 399 550.886719 398.878906 550.242188 400.023438 C 549.695312 400.996094 550.460938 401.613281 550.925781 401.636719 C 550.988281 401.808594 551.089844 401.914062 551.167969 401.902344 C 551.3125 401.882812 551.28125 401.757812 551.226562 401.59375 C 551.359375 401.535156 551.816406 401.3125 551.914062 400.851562 C 552.027344 400.308594 551.296875 400.082031 550.984375 400.761719 C 550.90625 400.9375 550.871094 401.105469 550.871094 401.257812 C 550.867188 401.257812 550.867188 401.257812 550.867188 401.257812 C 550.019531 400.992188 550.707031 399.480469 552.019531 400.011719 C 553.207031 400.496094 552.421875 402.828125 550.375 402.203125 C 548.40625 401.597656 549.929688 398.394531 551.707031 398.121094 C 552.34375 398.09375 553.089844 398.132812 553.609375 398.210938 C 554.035156 398.277344 554.054688 397.914062 553.753906 397.824219 C 552.917969 397.570312 550.03125 397.398438 548.316406 397.9375 C 548.035156 398.023438 547.839844 398.214844 547.828125 398.480469 C 547.816406 398.738281 548.070312 398.914062 548.402344 398.800781 Z M 551.515625 400.566406 C 551.820312 400.597656 551.5625 401.144531 551.160156 401.257812 C 551.167969 400.960938 551.273438 400.542969 551.515625 400.566406 Z M 554.824219 403.355469 C 554.6875 403.226562 554.554688 403.089844 554.4375 402.929688 C 554.539062 402.75 554.832031 402.183594 554.757812 401.539062 C 554.667969 400.757812 553.828125 400.820312 553.773438 401.792969 C 553.753906 402.195312 553.796875 402.519531 553.886719 402.78125 C 553.351562 403.425781 552.253906 404.035156 550.894531 404 C 549.566406 403.964844 548.261719 403.507812 547.585938 402.414062 C 547.425781 402.152344 547.207031 402.15625 547.203125 402.417969 C 547.199219 402.914062 548.355469 404.78125 550.851562 404.828125 C 552.574219 404.863281 553.644531 404.125 554.199219 403.328125 C 554.3125 403.460938 554.441406 403.5625 554.574219 403.644531 C 554.859375 403.820312 554.992188 403.515625 554.824219 403.355469 Z M 554.246094 401.277344 C 554.429688 401.28125 554.480469 401.773438 554.148438 402.390625 C 554.144531 402.371094 554.136719 402.359375 554.128906 402.339844 C 553.992188 401.902344 554.046875 401.273438 554.246094 401.277344 Z M 517.996094 404.71875 C 518.582031 404.84375 519.140625 404.789062 519.671875 404.511719 C 520.277344 404.199219 520.71875 403.71875 521.0625 403.148438 C 521.089844 403.101562 521.105469 403.050781 521.160156 403.015625 C 521.1875 403.148438 521.203125 403.269531 521.230469 403.386719 C 521.378906 404.085938 521.972656 404.390625 522.640625 404.105469 C 522.902344 403.992188 523.089844 403.792969 523.257812 403.566406 C 523.292969 403.519531 523.3125 403.429688 523.363281 403.4375 C 523.425781 403.445312 523.417969 403.539062 523.441406 403.59375 C 523.542969 403.878906 523.710938 404.101562 524.023438 404.179688 C 524.289062 404.246094 524.539062 404.183594 524.773438 404.054688 C 525.027344 403.914062 525.214844 403.699219 525.390625 403.472656 C 525.410156 403.445312 525.421875 403.394531 525.457031 403.40625 C 525.5 403.414062 525.480469 403.464844 525.480469 403.496094 C 525.484375 403.617188 525.503906 403.730469 525.539062 403.84375 C 525.632812 404.175781 525.855469 404.242188 526.160156 404.171875 C 526.277344 404.144531 526.351562 404.078125 526.382812 403.957031 C 526.460938 403.617188 526.574219 403.292969 526.710938 402.972656 C 526.941406 402.417969 527.226562 401.886719 527.613281 401.417969 C 527.714844 401.296875 527.816406 401.175781 527.953125 401.097656 C 528.078125 401.027344 528.167969 401.070312 528.1875 401.207031 C 528.195312 401.269531 528.191406 401.332031 528.183594 401.394531 C 528.125 401.828125 528 402.253906 527.921875 402.691406 C 527.878906 402.949219 527.855469 403.207031 527.894531 403.46875 C 527.925781 403.667969 527.992188 403.859375 528.148438 404 C 528.367188 404.199219 528.628906 404.238281 528.910156 404.160156 C 529.160156 404.09375 529.355469 403.9375 529.53125 403.75 C 529.847656 403.410156 530.070312 403.015625 530.25 402.59375 C 530.277344 402.53125 530.292969 402.460938 530.34375 402.410156 C 530.375 402.429688 530.375 402.457031 530.375 402.476562 C 530.40625 402.714844 530.453125 402.949219 530.511719 403.179688 C 530.578125 403.441406 530.660156 403.695312 530.804688 403.921875 C 530.980469 404.203125 531.191406 404.261719 531.488281 404.113281 C 531.667969 404.027344 531.820312 403.902344 531.964844 403.761719 C 532.5 403.242188 532.90625 402.628906 533.246094 401.972656 C 533.277344 401.90625 533.3125 401.886719 533.386719 401.890625 C 533.648438 401.90625 533.894531 401.863281 534.125 401.726562 C 534.140625 401.71875 534.164062 401.695312 534.183594 401.710938 C 534.207031 401.730469 534.1875 401.757812 534.179688 401.777344 C 534.113281 401.972656 534.050781 402.167969 534.03125 402.375 C 533.980469 402.78125 533.972656 403.1875 534.117188 403.578125 C 534.3125 404.09375 534.804688 404.324219 535.335938 404.148438 C 535.671875 404.039062 535.90625 403.8125 536.101562 403.539062 C 536.128906 403.5 536.148438 403.425781 536.199219 403.433594 C 536.25 403.4375 536.242188 403.511719 536.257812 403.558594 C 536.40625 404.074219 536.84375 404.308594 537.367188 404.152344 C 537.792969 404.023438 538.09375 403.753906 538.300781 403.378906 C 538.40625 403.1875 538.46875 402.984375 538.441406 402.761719 C 538.433594 402.691406 538.425781 402.601562 538.324219 402.589844 C 538.222656 402.578125 538.21875 402.671875 538.195312 402.734375 C 538.109375 402.953125 538.011719 403.160156 537.875 403.355469 C 537.796875 403.460938 537.707031 403.558594 537.589844 403.625 C 537.417969 403.722656 537.28125 403.667969 537.230469 403.476562 C 537.214844 403.414062 537.210938 403.355469 537.207031 403.289062 C 537.199219 402.980469 537.265625 402.675781 537.328125 402.378906 C 537.445312 401.808594 537.601562 401.253906 537.777344 400.703125 C 537.800781 400.625 537.816406 400.546875 537.8125 400.46875 C 537.808594 400.339844 537.746094 400.265625 537.613281 400.246094 C 537.394531 400.21875 537.195312 400.257812 537.015625 400.394531 C 536.902344 400.488281 536.808594 400.597656 536.730469 400.71875 C 536.71875 400.742188 536.707031 400.777344 536.675781 400.777344 C 536.636719 400.773438 536.640625 400.734375 536.628906 400.707031 C 536.542969 400.441406 536.363281 400.277344 536.078125 400.230469 C 535.945312 400.210938 535.808594 400.210938 535.671875 400.238281 C 535.351562 400.296875 535.09375 400.476562 534.863281 400.695312 C 534.710938 400.839844 534.59375 401.019531 534.445312 401.167969 C 534.21875 401.394531 533.960938 401.554688 533.621094 401.554688 C 533.472656 401.550781 533.460938 401.53125 533.511719 401.398438 C 533.648438 401.050781 533.757812 400.699219 533.78125 400.324219 C 533.789062 400.207031 533.785156 400.089844 533.757812 399.972656 C 533.652344 399.496094 533.269531 399.359375 532.84375 399.515625 C 532.484375 399.644531 532.308594 399.9375 532.246094 400.285156 C 532.136719 400.882812 532.273438 401.398438 532.832031 401.742188 C 532.882812 401.773438 532.875 401.808594 532.851562 401.851562 C 532.667969 402.257812 532.445312 402.644531 532.179688 403.003906 C 532.078125 403.144531 531.96875 403.277344 531.832031 403.386719 C 531.695312 403.488281 531.613281 403.46875 531.542969 403.316406 C 531.503906 403.230469 531.476562 403.148438 531.457031 403.058594 C 531.328125 402.40625 531.324219 401.746094 531.335938 401.082031 C 531.335938 400.859375 531.355469 400.636719 531.378906 400.414062 C 531.386719 400.335938 531.371094 400.265625 531.28125 400.246094 C 530.96875 400.1875 530.671875 400.238281 530.488281 400.507812 C 530.375 400.675781 530.316406 400.859375 530.304688 401.058594 C 530.277344 401.601562 530.160156 402.121094 529.90625 402.605469 C 529.753906 402.890625 529.589844 403.160156 529.324219 403.355469 C 529.226562 403.425781 529.117188 403.496094 528.988281 403.441406 C 528.859375 403.382812 528.859375 403.25 528.851562 403.132812 C 528.84375 402.941406 528.878906 402.757812 528.917969 402.566406 C 528.996094 402.167969 529.121094 401.777344 529.183594 401.375 C 529.226562 401.101562 529.242188 400.832031 529.132812 400.566406 C 529.050781 400.363281 528.894531 400.246094 528.667969 400.226562 C 528.382812 400.199219 528.15625 400.324219 527.945312 400.488281 C 527.59375 400.757812 527.324219 401.105469 527.085938 401.472656 C 527.011719 401.582031 526.941406 401.695312 526.867188 401.816406 C 526.839844 401.769531 526.851562 401.746094 526.859375 401.71875 C 526.914062 401.527344 526.941406 401.332031 526.964844 401.132812 C 526.984375 400.921875 526.996094 400.707031 526.917969 400.5 C 526.867188 400.359375 526.761719 400.273438 526.613281 400.253906 C 526.511719 400.242188 526.410156 400.246094 526.3125 400.28125 C 526.140625 400.34375 526.027344 400.375 526.058594 400.617188 C 526.0625 400.628906 526.058594 400.644531 526.058594 400.65625 C 525.984375 401.539062 525.71875 402.363281 525.25 403.121094 C 525.128906 403.320312 524.980469 403.503906 524.757812 403.601562 C 524.546875 403.695312 524.410156 403.613281 524.390625 403.386719 C 524.375 403.234375 524.382812 403.082031 524.402344 402.933594 C 524.511719 402.179688 524.71875 401.449219 524.945312 400.726562 C 524.964844 400.660156 524.984375 400.59375 524.992188 400.527344 C 525.007812 400.375 524.933594 400.277344 524.78125 400.257812 C 524.5625 400.226562 524.363281 400.269531 524.183594 400.40625 C 524.074219 400.492188 523.988281 400.597656 523.910156 400.714844 C 523.894531 400.742188 523.882812 400.785156 523.84375 400.78125 C 523.808594 400.773438 523.808594 400.726562 523.796875 400.695312 C 523.695312 400.40625 523.484375 400.253906 523.179688 400.226562 C 522.851562 400.199219 522.566406 400.300781 522.308594 400.484375 C 521.839844 400.820312 521.539062 401.277344 521.34375 401.804688 C 521.148438 402.328125 520.890625 402.820312 520.519531 403.25 C 520.15625 403.675781 519.730469 404.007812 519.15625 404.097656 C 518.566406 404.191406 518.054688 404.046875 517.679688 403.566406 C 517.445312 403.269531 517.328125 402.917969 517.277344 402.554688 C 517.074219 401.160156 517.464844 399.945312 518.457031 398.925781 C 518.769531 398.605469 519.144531 398.359375 519.601562 398.273438 C 520.109375 398.175781 520.558594 398.378906 520.609375 398.992188 C 520.632812 399.265625 520.570312 399.515625 520.457031 399.761719 C 520.398438 399.894531 520.316406 400.011719 520.277344 400.152344 C 520.242188 400.273438 520.296875 400.347656 520.421875 400.351562 C 520.578125 400.359375 520.71875 400.308594 520.84375 400.226562 C 521.183594 400.015625 521.359375 399.699219 521.4375 399.320312 C 521.542969 398.824219 521.339844 398.335938 520.902344 398.058594 C 520.554688 397.839844 520.164062 397.773438 519.761719 397.773438 C 519.117188 397.769531 518.535156 397.960938 518.007812 398.3125 C 516.988281 398.988281 516.386719 399.9375 516.171875 401.125 C 516.03125 401.890625 516.078125 402.648438 516.378906 403.375 C 516.679688 404.09375 517.214844 404.554688 517.996094 404.71875 Z M 535 402.726562 C 535.066406 402.148438 535.246094 401.605469 535.589844 401.125 C 535.675781 401 535.78125 400.894531 535.917969 400.820312 C 536.136719 400.695312 536.347656 400.765625 536.429688 401.003906 C 536.480469 401.140625 536.488281 401.28125 536.484375 401.425781 C 536.476562 401.886719 536.363281 402.324219 536.191406 402.746094 C 536.105469 402.964844 536 403.171875 535.851562 403.355469 C 535.800781 403.417969 535.746094 403.472656 535.683594 403.519531 C 535.457031 403.691406 535.199219 403.625 535.089844 403.363281 C 535 403.160156 534.976562 402.945312 535 402.726562 Z M 532.808594 400.558594 C 532.808594 400.359375 532.828125 400.199219 532.914062 400.050781 C 532.953125 399.976562 533.003906 399.910156 533.101562 399.921875 C 533.203125 399.933594 533.234375 400.011719 533.261719 400.097656 C 533.289062 400.195312 533.285156 400.296875 533.273438 400.394531 C 533.246094 400.664062 533.1875 400.929688 533.109375 401.191406 C 533.101562 401.21875 533.097656 401.253906 533.070312 401.261719 C 533.03125 401.269531 533.015625 401.230469 533.003906 401.203125 C 532.859375 401 532.8125 400.769531 532.808594 400.558594 Z M 522.1875 402.605469 C 522.269531 402.066406 522.4375 401.554688 522.769531 401.109375 C 522.859375 400.988281 522.964844 400.890625 523.097656 400.816406 C 523.304688 400.703125 523.492188 400.761719 523.589844 400.96875 C 523.664062 401.121094 523.660156 401.28125 523.664062 401.445312 C 523.625 402.125 523.445312 402.757812 523.054688 403.328125 C 523.003906 403.402344 522.941406 403.460938 522.871094 403.515625 C 522.632812 403.703125 522.359375 403.628906 522.25 403.34375 C 522.15625 403.101562 522.152344 402.855469 522.1875 402.605469 Z M 522.1875 402.605469 " fill-opacity="1" fill-rule="nonzero"/></g><g clip-path="url(#a7c0aa7039)"><path fill="#000000" d="M 240.15625 45 C 164.1875 45 100.597656 97.207031 100.597656 164.039062 C 100.597656 200.117188 119.421875 231.195312 148.507812 252.90625 L 126.703125 318.421875 L 194.78125 276.25 C 208.859375 280.675781 224.410156 283.082031 240.15625 283.082031 C 246.28125 283.082031 252.246094 282.632812 258.179688 281.960938 C 276.105469 316.785156 316.734375 340.550781 363.296875 340.550781 C 377.4375 340.550781 390.523438 337.886719 402.675781 334.265625 L 458.890625 365.722656 L 443.207031 311.945312 C 464.375 294.371094 478.226562 269.902344 478.226562 242.035156 C 478.226562 191.042969 433.875 150.378906 377.664062 144.382812 C 366.566406 87.074219 308.492188 45 240.15625 45 Z M 240.15625 61.417969 C 300.15625 61.417969 349.570312 97.144531 360.859375 143.613281 C 299.128906 144.734375 248.367188 187.484375 248.367188 242.035156 C 248.367188 250.402344 249.679688 258.484375 251.957031 266.179688 C 248.078125 266.503906 244.132812 266.664062 240.15625 266.664062 C 224.570312 266.664062 208.957031 264.289062 196.097656 259.734375 L 192.410156 258.453125 L 156.589844 280.613281 L 167.8125 246.90625 L 162.683594 243.445312 C 134.109375 224.136719 117.019531 196.429688 117.019531 164.039062 C 117.019531 107.726562 171.660156 61.417969 240.15625 61.417969 Z M 190.902344 110.679688 C 181.859375 110.679688 174.484375 118.054688 174.484375 127.097656 C 174.484375 136.140625 181.859375 143.515625 190.902344 143.515625 C 199.945312 143.515625 207.320312 136.140625 207.320312 127.097656 C 207.320312 118.054688 199.945312 110.679688 190.902344 110.679688 Z M 289.414062 110.679688 C 280.371094 110.679688 272.992188 118.054688 272.992188 127.097656 C 272.992188 136.140625 280.371094 143.515625 289.414062 143.515625 C 298.457031 143.515625 305.832031 136.140625 305.832031 127.097656 C 305.832031 118.054688 298.457031 110.679688 289.414062 110.679688 Z M 363.296875 159.9375 C 418.675781 159.9375 461.808594 197.167969 461.808594 242.035156 C 461.808594 266.308594 449.429688 287.605469 429.003906 302.742188 L 424.417969 306.171875 L 431.890625 331.796875 L 405.207031 316.820312 L 401.746094 317.972656 C 390.265625 321.820312 377.148438 324.128906 363.296875 324.128906 C 307.914062 324.128906 264.785156 286.898438 264.785156 242.035156 C 264.785156 197.167969 307.914062 159.9375 363.296875 159.9375 Z M 326.355469 209.195312 C 319.78125 209.195312 314.039062 214.933594 314.039062 221.507812 C 314.039062 228.082031 319.78125 233.824219 326.355469 233.824219 C 332.929688 233.824219 338.667969 228.082031 338.667969 221.507812 C 338.667969 214.933594 332.929688 209.195312 326.355469 209.195312 Z M 400.238281 209.195312 C 393.664062 209.195312 387.925781 214.933594 387.925781 221.507812 C 387.925781 228.082031 393.664062 233.824219 400.238281 233.824219 C 406.8125 233.824219 412.550781 228.082031 412.550781 221.507812 C 412.550781 214.933594 406.8125 209.195312 400.238281 209.195312 Z M 400.238281 209.195312 " fill-opacity="1" fill-rule="nonzero"/></g></svg>