<svg xmlns="http://www.w3.org/2000/svg" xmlns:xlink="http://www.w3.org/1999/xlink" width="800" zoomAndPan="magnify" viewBox="0 0 600 449.999984" height="600" preserveAspectRatio="xMidYMid meet" version="1.0"><defs><clipPath id="1207f57d35"><path d="M 111.285156 47.472656 L 488.535156 47.472656 L 488.535156 405.222656 L 111.285156 405.222656 Z M 111.285156 47.472656 " clip-rule="nonzero"/></clipPath></defs><g clip-path="url(#1207f57d35)"><path fill="#d4237a" d="M 242.007812 100.492188 L 207.269531 66.691406 C 207.269531 66.691406 201.773438 60.011719 210.996094 52.347656 C 220.222656 44.882812 220.8125 48.222656 223.753906 50.1875 C 226.699219 52.152344 275.574219 100.292969 275.574219 100.292969 C 275.574219 100.292969 242.007812 100.492188 242.007812 100.492188 Z M 357.8125 101.667969 L 392.753906 67.871094 C 392.753906 67.871094 398.246094 61.191406 389.023438 53.527344 C 379.796875 46.058594 379.207031 49.402344 376.265625 51.367188 C 373.320312 53.332031 324.445312 101.667969 324.445312 101.667969 Z M 488.535156 164.351562 C 487.359375 111.296875 441.234375 101.277344 441.234375 101.277344 C 441.234375 101.277344 205.699219 99.3125 156.628906 101.277344 C 107.558594 115.03125 111.285156 164.351562 111.285156 164.351562 C 111.285156 164.351562 111.875 269.675781 111.285156 322.929688 C 116.585938 376.179688 157.609375 384.628906 157.609375 384.628906 C 157.609375 384.628906 173.898438 385.023438 185.875 385.023438 C 187.050781 388.558594 188.03125 405.261719 206.679688 405.261719 C 225.324219 405.261719 227.484375 385.023438 227.484375 385.023438 C 227.484375 385.023438 363.507812 384.433594 374.890625 384.433594 C 375.480469 390.132812 378.421875 405.457031 396.875 405.261719 C 415.519531 404.871094 416.699219 383.253906 416.699219 383.253906 C 416.699219 383.253906 422.980469 382.664062 441.820312 383.253906 C 485.789062 375 488.339844 323.320312 488.339844 323.320312 C 488.339844 323.320312 487.949219 217.210938 488.535156 164.351562 Z M 450.65625 332.753906 C 450.65625 341.007812 443.980469 347.882812 435.933594 347.882812 L 167.816406 347.882812 C 159.769531 347.882812 153.09375 341.203125 153.09375 332.753906 L 153.09375 155.117188 C 153.09375 146.863281 159.769531 139.988281 167.816406 139.988281 L 435.933594 139.988281 C 444.175781 139.988281 450.65625 146.667969 450.65625 155.117188 Z M 181.359375 205.226562 L 260.066406 190.09375 L 265.957031 219.765625 L 187.835938 234.898438 Z M 426.316406 205.226562 L 347.609375 190.09375 L 341.523438 219.765625 L 419.640625 234.898438 Z M 265.957031 278.714844 C 265.957031 278.714844 283.226562 309.960938 302.464844 268.695312 C 321.109375 308.976562 341.523438 279.304688 341.523438 279.304688 L 353.105469 286.96875 C 353.105469 286.96875 331.316406 321.945312 302.660156 295.417969 C 278.320312 321.945312 253 286.96875 253 286.96875 C 253 286.96875 265.957031 278.714844 265.957031 278.714844 Z M 265.957031 278.714844 " fill-opacity="1" fill-rule="nonzero"/></g></svg>